<?xml version="1.0" encoding="UTF-8"?>
<svg xmlns="http://www.w3.org/2000/svg" xmlns:xlink="http://www.w3.org/1999/xlink" width="230px" height="54px" viewBox="0 0 229 54" version="1.1">
<defs>
<clipPath id="clip1">
  <path d="M 8 14 L 46 14 L 46 48 L 8 48 Z M 8 14 "/>
</clipPath>
<clipPath id="clip2">
  <path d="M 45.511719 18.90625 L 43.824219 15.929688 C 43.128906 14.792969 41.578125 14.484375 40.375 15.078125 L 27.183594 22.9375 L 13.992188 15.078125 C 12.789062 14.484375 11.238281 14.792969 10.542969 15.929688 L 8.855469 18.90625 C 8.484375 19.871094 8.277344 21.464844 9.773438 22.371094 L 23.121094 30.085938 L 23.121094 45.609375 C 23.121094 46.710938 24.015625 47.605469 25.117188 47.605469 L 29.25 47.605469 C 30.351562 47.605469 31.242188 46.710938 31.242188 45.609375 L 31.242188 30.085938 L 44.589844 22.371094 C 46.089844 21.464844 45.878906 19.871094 45.511719 18.90625 Z M 45.511719 18.90625 "/>
</clipPath>
<clipPath id="clip3">
  <path d="M 9 14 L 46 14 L 46 48 L 9 48 Z M 9 14 "/>
</clipPath>
<clipPath id="clip4">
  <path d="M 45.511719 18.90625 L 43.824219 15.929688 C 43.128906 14.792969 41.578125 14.484375 40.375 15.078125 L 27.183594 22.9375 L 13.992188 15.078125 C 12.789062 14.484375 11.238281 14.792969 10.542969 15.929688 L 8.855469 18.90625 C 8.484375 19.871094 8.277344 21.464844 9.773438 22.371094 L 23.121094 30.085938 L 23.121094 45.609375 C 23.121094 46.710938 24.015625 47.605469 25.117188 47.605469 L 29.25 47.605469 C 30.351562 47.605469 31.242188 46.710938 31.242188 45.609375 L 31.242188 30.085938 L 44.589844 22.371094 C 46.089844 21.464844 45.878906 19.871094 45.511719 18.90625 Z M 45.511719 18.90625 "/>
</clipPath>
<clipPath id="clip5">
  <path d="M 9 14 L 45 14 L 45 48 L 9 48 Z M 9 14 "/>
</clipPath>
<clipPath id="clip6">
  <path d="M 45.511719 18.90625 L 43.824219 15.929688 C 43.128906 14.792969 41.578125 14.484375 40.375 15.078125 L 27.183594 22.9375 L 13.992188 15.078125 C 12.789062 14.484375 11.238281 14.792969 10.542969 15.929688 L 8.855469 18.90625 C 8.484375 19.871094 8.277344 21.464844 9.773438 22.371094 L 23.121094 30.085938 L 23.121094 45.609375 C 23.121094 46.710938 24.015625 47.605469 25.117188 47.605469 L 29.25 47.605469 C 30.351562 47.605469 31.242188 46.710938 31.242188 45.609375 L 31.242188 30.085938 L 44.589844 22.371094 C 46.089844 21.464844 45.878906 19.871094 45.511719 18.90625 Z M 45.511719 18.90625 "/>
</clipPath>
<clipPath id="clip7">
  <path d="M 10 14 L 45 14 L 45 48 L 10 48 Z M 10 14 "/>
</clipPath>
<clipPath id="clip8">
  <path d="M 45.511719 18.90625 L 43.824219 15.929688 C 43.128906 14.792969 41.578125 14.484375 40.375 15.078125 L 27.183594 22.9375 L 13.992188 15.078125 C 12.789062 14.484375 11.238281 14.792969 10.542969 15.929688 L 8.855469 18.90625 C 8.484375 19.871094 8.277344 21.464844 9.773438 22.371094 L 23.121094 30.085938 L 23.121094 45.609375 C 23.121094 46.710938 24.015625 47.605469 25.117188 47.605469 L 29.25 47.605469 C 30.351562 47.605469 31.242188 46.710938 31.242188 45.609375 L 31.242188 30.085938 L 44.589844 22.371094 C 46.089844 21.464844 45.878906 19.871094 45.511719 18.90625 Z M 45.511719 18.90625 "/>
</clipPath>
<clipPath id="clip9">
  <path d="M 10 14 L 44 14 L 44 48 L 10 48 Z M 10 14 "/>
</clipPath>
<clipPath id="clip10">
  <path d="M 45.511719 18.90625 L 43.824219 15.929688 C 43.128906 14.792969 41.578125 14.484375 40.375 15.078125 L 27.183594 22.9375 L 13.992188 15.078125 C 12.789062 14.484375 11.238281 14.792969 10.542969 15.929688 L 8.855469 18.90625 C 8.484375 19.871094 8.277344 21.464844 9.773438 22.371094 L 23.121094 30.085938 L 23.121094 45.609375 C 23.121094 46.710938 24.015625 47.605469 25.117188 47.605469 L 29.25 47.605469 C 30.351562 47.605469 31.242188 46.710938 31.242188 45.609375 L 31.242188 30.085938 L 44.589844 22.371094 C 46.089844 21.464844 45.878906 19.871094 45.511719 18.90625 Z M 45.511719 18.90625 "/>
</clipPath>
<clipPath id="clip11">
  <path d="M 11 14 L 44 14 L 44 48 L 11 48 Z M 11 14 "/>
</clipPath>
<clipPath id="clip12">
  <path d="M 45.511719 18.90625 L 43.824219 15.929688 C 43.128906 14.792969 41.578125 14.484375 40.375 15.078125 L 27.183594 22.9375 L 13.992188 15.078125 C 12.789062 14.484375 11.238281 14.792969 10.542969 15.929688 L 8.855469 18.90625 C 8.484375 19.871094 8.277344 21.464844 9.773438 22.371094 L 23.121094 30.085938 L 23.121094 45.609375 C 23.121094 46.710938 24.015625 47.605469 25.117188 47.605469 L 29.25 47.605469 C 30.351562 47.605469 31.242188 46.710938 31.242188 45.609375 L 31.242188 30.085938 L 44.589844 22.371094 C 46.089844 21.464844 45.878906 19.871094 45.511719 18.90625 Z M 45.511719 18.90625 "/>
</clipPath>
<clipPath id="clip13">
  <path d="M 11 14 L 43 14 L 43 48 L 11 48 Z M 11 14 "/>
</clipPath>
<clipPath id="clip14">
  <path d="M 45.511719 18.90625 L 43.824219 15.929688 C 43.128906 14.792969 41.578125 14.484375 40.375 15.078125 L 27.183594 22.9375 L 13.992188 15.078125 C 12.789062 14.484375 11.238281 14.792969 10.542969 15.929688 L 8.855469 18.90625 C 8.484375 19.871094 8.277344 21.464844 9.773438 22.371094 L 23.121094 30.085938 L 23.121094 45.609375 C 23.121094 46.710938 24.015625 47.605469 25.117188 47.605469 L 29.25 47.605469 C 30.351562 47.605469 31.242188 46.710938 31.242188 45.609375 L 31.242188 30.085938 L 44.589844 22.371094 C 46.089844 21.464844 45.878906 19.871094 45.511719 18.90625 Z M 45.511719 18.90625 "/>
</clipPath>
<clipPath id="clip15">
  <path d="M 12 14 L 43 14 L 43 48 L 12 48 Z M 12 14 "/>
</clipPath>
<clipPath id="clip16">
  <path d="M 45.511719 18.90625 L 43.824219 15.929688 C 43.128906 14.792969 41.578125 14.484375 40.375 15.078125 L 27.183594 22.9375 L 13.992188 15.078125 C 12.789062 14.484375 11.238281 14.792969 10.542969 15.929688 L 8.855469 18.90625 C 8.484375 19.871094 8.277344 21.464844 9.773438 22.371094 L 23.121094 30.085938 L 23.121094 45.609375 C 23.121094 46.710938 24.015625 47.605469 25.117188 47.605469 L 29.25 47.605469 C 30.351562 47.605469 31.242188 46.710938 31.242188 45.609375 L 31.242188 30.085938 L 44.589844 22.371094 C 46.089844 21.464844 45.878906 19.871094 45.511719 18.90625 Z M 45.511719 18.90625 "/>
</clipPath>
<clipPath id="clip17">
  <path d="M 12 14 L 42 14 L 42 48 L 12 48 Z M 12 14 "/>
</clipPath>
<clipPath id="clip18">
  <path d="M 45.511719 18.90625 L 43.824219 15.929688 C 43.128906 14.792969 41.578125 14.484375 40.375 15.078125 L 27.183594 22.9375 L 13.992188 15.078125 C 12.789062 14.484375 11.238281 14.792969 10.542969 15.929688 L 8.855469 18.90625 C 8.484375 19.871094 8.277344 21.464844 9.773438 22.371094 L 23.121094 30.085938 L 23.121094 45.609375 C 23.121094 46.710938 24.015625 47.605469 25.117188 47.605469 L 29.25 47.605469 C 30.351562 47.605469 31.242188 46.710938 31.242188 45.609375 L 31.242188 30.085938 L 44.589844 22.371094 C 46.089844 21.464844 45.878906 19.871094 45.511719 18.90625 Z M 45.511719 18.90625 "/>
</clipPath>
<clipPath id="clip19">
  <path d="M 13 14 L 42 14 L 42 48 L 13 48 Z M 13 14 "/>
</clipPath>
<clipPath id="clip20">
  <path d="M 45.511719 18.90625 L 43.824219 15.929688 C 43.128906 14.792969 41.578125 14.484375 40.375 15.078125 L 27.183594 22.9375 L 13.992188 15.078125 C 12.789062 14.484375 11.238281 14.792969 10.542969 15.929688 L 8.855469 18.90625 C 8.484375 19.871094 8.277344 21.464844 9.773438 22.371094 L 23.121094 30.085938 L 23.121094 45.609375 C 23.121094 46.710938 24.015625 47.605469 25.117188 47.605469 L 29.25 47.605469 C 30.351562 47.605469 31.242188 46.710938 31.242188 45.609375 L 31.242188 30.085938 L 44.589844 22.371094 C 46.089844 21.464844 45.878906 19.871094 45.511719 18.90625 Z M 45.511719 18.90625 "/>
</clipPath>
<clipPath id="clip21">
  <path d="M 13 14 L 41 14 L 41 48 L 13 48 Z M 13 14 "/>
</clipPath>
<clipPath id="clip22">
  <path d="M 45.511719 18.90625 L 43.824219 15.929688 C 43.128906 14.792969 41.578125 14.484375 40.375 15.078125 L 27.183594 22.9375 L 13.992188 15.078125 C 12.789062 14.484375 11.238281 14.792969 10.542969 15.929688 L 8.855469 18.90625 C 8.484375 19.871094 8.277344 21.464844 9.773438 22.371094 L 23.121094 30.085938 L 23.121094 45.609375 C 23.121094 46.710938 24.015625 47.605469 25.117188 47.605469 L 29.25 47.605469 C 30.351562 47.605469 31.242188 46.710938 31.242188 45.609375 L 31.242188 30.085938 L 44.589844 22.371094 C 46.089844 21.464844 45.878906 19.871094 45.511719 18.90625 Z M 45.511719 18.90625 "/>
</clipPath>
<clipPath id="clip23">
  <path d="M 13 15 L 41 15 L 41 48 L 13 48 Z M 13 15 "/>
</clipPath>
<clipPath id="clip24">
  <path d="M 45.511719 18.90625 L 43.824219 15.929688 C 43.128906 14.792969 41.578125 14.484375 40.375 15.078125 L 27.183594 22.9375 L 13.992188 15.078125 C 12.789062 14.484375 11.238281 14.792969 10.542969 15.929688 L 8.855469 18.90625 C 8.484375 19.871094 8.277344 21.464844 9.773438 22.371094 L 23.121094 30.085938 L 23.121094 45.609375 C 23.121094 46.710938 24.015625 47.605469 25.117188 47.605469 L 29.25 47.605469 C 30.351562 47.605469 31.242188 46.710938 31.242188 45.609375 L 31.242188 30.085938 L 44.589844 22.371094 C 46.089844 21.464844 45.878906 19.871094 45.511719 18.90625 Z M 45.511719 18.90625 "/>
</clipPath>
<clipPath id="clip25">
  <path d="M 14 15 L 41 15 L 41 48 L 14 48 Z M 14 15 "/>
</clipPath>
<clipPath id="clip26">
  <path d="M 45.511719 18.90625 L 43.824219 15.929688 C 43.128906 14.792969 41.578125 14.484375 40.375 15.078125 L 27.183594 22.9375 L 13.992188 15.078125 C 12.789062 14.484375 11.238281 14.792969 10.542969 15.929688 L 8.855469 18.90625 C 8.484375 19.871094 8.277344 21.464844 9.773438 22.371094 L 23.121094 30.085938 L 23.121094 45.609375 C 23.121094 46.710938 24.015625 47.605469 25.117188 47.605469 L 29.25 47.605469 C 30.351562 47.605469 31.242188 46.710938 31.242188 45.609375 L 31.242188 30.085938 L 44.589844 22.371094 C 46.089844 21.464844 45.878906 19.871094 45.511719 18.90625 Z M 45.511719 18.90625 "/>
</clipPath>
<clipPath id="clip27">
  <path d="M 14 15 L 40 15 L 40 47 L 14 47 Z M 14 15 "/>
</clipPath>
<clipPath id="clip28">
  <path d="M 45.511719 18.90625 L 43.824219 15.929688 C 43.128906 14.792969 41.578125 14.484375 40.375 15.078125 L 27.183594 22.9375 L 13.992188 15.078125 C 12.789062 14.484375 11.238281 14.792969 10.542969 15.929688 L 8.855469 18.90625 C 8.484375 19.871094 8.277344 21.464844 9.773438 22.371094 L 23.121094 30.085938 L 23.121094 45.609375 C 23.121094 46.710938 24.015625 47.605469 25.117188 47.605469 L 29.25 47.605469 C 30.351562 47.605469 31.242188 46.710938 31.242188 45.609375 L 31.242188 30.085938 L 44.589844 22.371094 C 46.089844 21.464844 45.878906 19.871094 45.511719 18.90625 Z M 45.511719 18.90625 "/>
</clipPath>
<clipPath id="clip29">
  <path d="M 14 16 L 40 16 L 40 47 L 14 47 Z M 14 16 "/>
</clipPath>
<clipPath id="clip30">
  <path d="M 45.511719 18.90625 L 43.824219 15.929688 C 43.128906 14.792969 41.578125 14.484375 40.375 15.078125 L 27.183594 22.9375 L 13.992188 15.078125 C 12.789062 14.484375 11.238281 14.792969 10.542969 15.929688 L 8.855469 18.90625 C 8.484375 19.871094 8.277344 21.464844 9.773438 22.371094 L 23.121094 30.085938 L 23.121094 45.609375 C 23.121094 46.710938 24.015625 47.605469 25.117188 47.605469 L 29.25 47.605469 C 30.351562 47.605469 31.242188 46.710938 31.242188 45.609375 L 31.242188 30.085938 L 44.589844 22.371094 C 46.089844 21.464844 45.878906 19.871094 45.511719 18.90625 Z M 45.511719 18.90625 "/>
</clipPath>
<clipPath id="clip31">
  <path d="M 15 16 L 40 16 L 40 47 L 15 47 Z M 15 16 "/>
</clipPath>
<clipPath id="clip32">
  <path d="M 45.511719 18.90625 L 43.824219 15.929688 C 43.128906 14.792969 41.578125 14.484375 40.375 15.078125 L 27.183594 22.9375 L 13.992188 15.078125 C 12.789062 14.484375 11.238281 14.792969 10.542969 15.929688 L 8.855469 18.90625 C 8.484375 19.871094 8.277344 21.464844 9.773438 22.371094 L 23.121094 30.085938 L 23.121094 45.609375 C 23.121094 46.710938 24.015625 47.605469 25.117188 47.605469 L 29.25 47.605469 C 30.351562 47.605469 31.242188 46.710938 31.242188 45.609375 L 31.242188 30.085938 L 44.589844 22.371094 C 46.089844 21.464844 45.878906 19.871094 45.511719 18.90625 Z M 45.511719 18.90625 "/>
</clipPath>
<clipPath id="clip33">
  <path d="M 15 17 L 39 17 L 39 46 L 15 46 Z M 15 17 "/>
</clipPath>
<clipPath id="clip34">
  <path d="M 45.511719 18.90625 L 43.824219 15.929688 C 43.128906 14.792969 41.578125 14.484375 40.375 15.078125 L 27.183594 22.9375 L 13.992188 15.078125 C 12.789062 14.484375 11.238281 14.792969 10.542969 15.929688 L 8.855469 18.90625 C 8.484375 19.871094 8.277344 21.464844 9.773438 22.371094 L 23.121094 30.085938 L 23.121094 45.609375 C 23.121094 46.710938 24.015625 47.605469 25.117188 47.605469 L 29.25 47.605469 C 30.351562 47.605469 31.242188 46.710938 31.242188 45.609375 L 31.242188 30.085938 L 44.589844 22.371094 C 46.089844 21.464844 45.878906 19.871094 45.511719 18.90625 Z M 45.511719 18.90625 "/>
</clipPath>
<clipPath id="clip35">
  <path d="M 16 17 L 39 17 L 39 45 L 16 45 Z M 16 17 "/>
</clipPath>
<clipPath id="clip36">
  <path d="M 45.511719 18.90625 L 43.824219 15.929688 C 43.128906 14.792969 41.578125 14.484375 40.375 15.078125 L 27.183594 22.9375 L 13.992188 15.078125 C 12.789062 14.484375 11.238281 14.792969 10.542969 15.929688 L 8.855469 18.90625 C 8.484375 19.871094 8.277344 21.464844 9.773438 22.371094 L 23.121094 30.085938 L 23.121094 45.609375 C 23.121094 46.710938 24.015625 47.605469 25.117188 47.605469 L 29.25 47.605469 C 30.351562 47.605469 31.242188 46.710938 31.242188 45.609375 L 31.242188 30.085938 L 44.589844 22.371094 C 46.089844 21.464844 45.878906 19.871094 45.511719 18.90625 Z M 45.511719 18.90625 "/>
</clipPath>
<clipPath id="clip37">
  <path d="M 16 18 L 39 18 L 39 45 L 16 45 Z M 16 18 "/>
</clipPath>
<clipPath id="clip38">
  <path d="M 45.511719 18.90625 L 43.824219 15.929688 C 43.128906 14.792969 41.578125 14.484375 40.375 15.078125 L 27.183594 22.9375 L 13.992188 15.078125 C 12.789062 14.484375 11.238281 14.792969 10.542969 15.929688 L 8.855469 18.90625 C 8.484375 19.871094 8.277344 21.464844 9.773438 22.371094 L 23.121094 30.085938 L 23.121094 45.609375 C 23.121094 46.710938 24.015625 47.605469 25.117188 47.605469 L 29.25 47.605469 C 30.351562 47.605469 31.242188 46.710938 31.242188 45.609375 L 31.242188 30.085938 L 44.589844 22.371094 C 46.089844 21.464844 45.878906 19.871094 45.511719 18.90625 Z M 45.511719 18.90625 "/>
</clipPath>
<clipPath id="clip39">
  <path d="M 16 18 L 38 18 L 38 45 L 16 45 Z M 16 18 "/>
</clipPath>
<clipPath id="clip40">
  <path d="M 45.511719 18.90625 L 43.824219 15.929688 C 43.128906 14.792969 41.578125 14.484375 40.375 15.078125 L 27.183594 22.9375 L 13.992188 15.078125 C 12.789062 14.484375 11.238281 14.792969 10.542969 15.929688 L 8.855469 18.90625 C 8.484375 19.871094 8.277344 21.464844 9.773438 22.371094 L 23.121094 30.085938 L 23.121094 45.609375 C 23.121094 46.710938 24.015625 47.605469 25.117188 47.605469 L 29.25 47.605469 C 30.351562 47.605469 31.242188 46.710938 31.242188 45.609375 L 31.242188 30.085938 L 44.589844 22.371094 C 46.089844 21.464844 45.878906 19.871094 45.511719 18.90625 Z M 45.511719 18.90625 "/>
</clipPath>
<clipPath id="clip41">
  <path d="M 16 18 L 38 18 L 38 44 L 16 44 Z M 16 18 "/>
</clipPath>
<clipPath id="clip42">
  <path d="M 45.511719 18.90625 L 43.824219 15.929688 C 43.128906 14.792969 41.578125 14.484375 40.375 15.078125 L 27.183594 22.9375 L 13.992188 15.078125 C 12.789062 14.484375 11.238281 14.792969 10.542969 15.929688 L 8.855469 18.90625 C 8.484375 19.871094 8.277344 21.464844 9.773438 22.371094 L 23.121094 30.085938 L 23.121094 45.609375 C 23.121094 46.710938 24.015625 47.605469 25.117188 47.605469 L 29.25 47.605469 C 30.351562 47.605469 31.242188 46.710938 31.242188 45.609375 L 31.242188 30.085938 L 44.589844 22.371094 C 46.089844 21.464844 45.878906 19.871094 45.511719 18.90625 Z M 45.511719 18.90625 "/>
</clipPath>
<clipPath id="clip43">
  <path d="M 17 19 L 38 19 L 38 44 L 17 44 Z M 17 19 "/>
</clipPath>
<clipPath id="clip44">
  <path d="M 45.511719 18.90625 L 43.824219 15.929688 C 43.128906 14.792969 41.578125 14.484375 40.375 15.078125 L 27.183594 22.9375 L 13.992188 15.078125 C 12.789062 14.484375 11.238281 14.792969 10.542969 15.929688 L 8.855469 18.90625 C 8.484375 19.871094 8.277344 21.464844 9.773438 22.371094 L 23.121094 30.085938 L 23.121094 45.609375 C 23.121094 46.710938 24.015625 47.605469 25.117188 47.605469 L 29.25 47.605469 C 30.351562 47.605469 31.242188 46.710938 31.242188 45.609375 L 31.242188 30.085938 L 44.589844 22.371094 C 46.089844 21.464844 45.878906 19.871094 45.511719 18.90625 Z M 45.511719 18.90625 "/>
</clipPath>
<clipPath id="clip45">
  <path d="M 17 19 L 37 19 L 37 44 L 17 44 Z M 17 19 "/>
</clipPath>
<clipPath id="clip46">
  <path d="M 45.511719 18.90625 L 43.824219 15.929688 C 43.128906 14.792969 41.578125 14.484375 40.375 15.078125 L 27.183594 22.9375 L 13.992188 15.078125 C 12.789062 14.484375 11.238281 14.792969 10.542969 15.929688 L 8.855469 18.90625 C 8.484375 19.871094 8.277344 21.464844 9.773438 22.371094 L 23.121094 30.085938 L 23.121094 45.609375 C 23.121094 46.710938 24.015625 47.605469 25.117188 47.605469 L 29.25 47.605469 C 30.351562 47.605469 31.242188 46.710938 31.242188 45.609375 L 31.242188 30.085938 L 44.589844 22.371094 C 46.089844 21.464844 45.878906 19.871094 45.511719 18.90625 Z M 45.511719 18.90625 "/>
</clipPath>
<clipPath id="clip47">
  <path d="M 17 20 L 37 20 L 37 43 L 17 43 Z M 17 20 "/>
</clipPath>
<clipPath id="clip48">
  <path d="M 45.511719 18.90625 L 43.824219 15.929688 C 43.128906 14.792969 41.578125 14.484375 40.375 15.078125 L 27.183594 22.9375 L 13.992188 15.078125 C 12.789062 14.484375 11.238281 14.792969 10.542969 15.929688 L 8.855469 18.90625 C 8.484375 19.871094 8.277344 21.464844 9.773438 22.371094 L 23.121094 30.085938 L 23.121094 45.609375 C 23.121094 46.710938 24.015625 47.605469 25.117188 47.605469 L 29.25 47.605469 C 30.351562 47.605469 31.242188 46.710938 31.242188 45.609375 L 31.242188 30.085938 L 44.589844 22.371094 C 46.089844 21.464844 45.878906 19.871094 45.511719 18.90625 Z M 45.511719 18.90625 "/>
</clipPath>
<clipPath id="clip49">
  <path d="M 18 20 L 37 20 L 37 43 L 18 43 Z M 18 20 "/>
</clipPath>
<clipPath id="clip50">
  <path d="M 45.511719 18.90625 L 43.824219 15.929688 C 43.128906 14.792969 41.578125 14.484375 40.375 15.078125 L 27.183594 22.9375 L 13.992188 15.078125 C 12.789062 14.484375 11.238281 14.792969 10.542969 15.929688 L 8.855469 18.90625 C 8.484375 19.871094 8.277344 21.464844 9.773438 22.371094 L 23.121094 30.085938 L 23.121094 45.609375 C 23.121094 46.710938 24.015625 47.605469 25.117188 47.605469 L 29.25 47.605469 C 30.351562 47.605469 31.242188 46.710938 31.242188 45.609375 L 31.242188 30.085938 L 44.589844 22.371094 C 46.089844 21.464844 45.878906 19.871094 45.511719 18.90625 Z M 45.511719 18.90625 "/>
</clipPath>
<clipPath id="clip51">
  <path d="M 18 20 L 36 20 L 36 42 L 18 42 Z M 18 20 "/>
</clipPath>
<clipPath id="clip52">
  <path d="M 45.511719 18.90625 L 43.824219 15.929688 C 43.128906 14.792969 41.578125 14.484375 40.375 15.078125 L 27.183594 22.9375 L 13.992188 15.078125 C 12.789062 14.484375 11.238281 14.792969 10.542969 15.929688 L 8.855469 18.90625 C 8.484375 19.871094 8.277344 21.464844 9.773438 22.371094 L 23.121094 30.085938 L 23.121094 45.609375 C 23.121094 46.710938 24.015625 47.605469 25.117188 47.605469 L 29.25 47.605469 C 30.351562 47.605469 31.242188 46.710938 31.242188 45.609375 L 31.242188 30.085938 L 44.589844 22.371094 C 46.089844 21.464844 45.878906 19.871094 45.511719 18.90625 Z M 45.511719 18.90625 "/>
</clipPath>
<clipPath id="clip53">
  <path d="M 18 21 L 36 21 L 36 42 L 18 42 Z M 18 21 "/>
</clipPath>
<clipPath id="clip54">
  <path d="M 45.511719 18.90625 L 43.824219 15.929688 C 43.128906 14.792969 41.578125 14.484375 40.375 15.078125 L 27.183594 22.9375 L 13.992188 15.078125 C 12.789062 14.484375 11.238281 14.792969 10.542969 15.929688 L 8.855469 18.90625 C 8.484375 19.871094 8.277344 21.464844 9.773438 22.371094 L 23.121094 30.085938 L 23.121094 45.609375 C 23.121094 46.710938 24.015625 47.605469 25.117188 47.605469 L 29.25 47.605469 C 30.351562 47.605469 31.242188 46.710938 31.242188 45.609375 L 31.242188 30.085938 L 44.589844 22.371094 C 46.089844 21.464844 45.878906 19.871094 45.511719 18.90625 Z M 45.511719 18.90625 "/>
</clipPath>
<clipPath id="clip55">
  <path d="M 19 21 L 36 21 L 36 42 L 19 42 Z M 19 21 "/>
</clipPath>
<clipPath id="clip56">
  <path d="M 45.511719 18.90625 L 43.824219 15.929688 C 43.128906 14.792969 41.578125 14.484375 40.375 15.078125 L 27.183594 22.9375 L 13.992188 15.078125 C 12.789062 14.484375 11.238281 14.792969 10.542969 15.929688 L 8.855469 18.90625 C 8.484375 19.871094 8.277344 21.464844 9.773438 22.371094 L 23.121094 30.085938 L 23.121094 45.609375 C 23.121094 46.710938 24.015625 47.605469 25.117188 47.605469 L 29.25 47.605469 C 30.351562 47.605469 31.242188 46.710938 31.242188 45.609375 L 31.242188 30.085938 L 44.589844 22.371094 C 46.089844 21.464844 45.878906 19.871094 45.511719 18.90625 Z M 45.511719 18.90625 "/>
</clipPath>
<clipPath id="clip57">
  <path d="M 19 21 L 35 21 L 35 41 L 19 41 Z M 19 21 "/>
</clipPath>
<clipPath id="clip58">
  <path d="M 45.511719 18.90625 L 43.824219 15.929688 C 43.128906 14.792969 41.578125 14.484375 40.375 15.078125 L 27.183594 22.9375 L 13.992188 15.078125 C 12.789062 14.484375 11.238281 14.792969 10.542969 15.929688 L 8.855469 18.90625 C 8.484375 19.871094 8.277344 21.464844 9.773438 22.371094 L 23.121094 30.085938 L 23.121094 45.609375 C 23.121094 46.710938 24.015625 47.605469 25.117188 47.605469 L 29.25 47.605469 C 30.351562 47.605469 31.242188 46.710938 31.242188 45.609375 L 31.242188 30.085938 L 44.589844 22.371094 C 46.089844 21.464844 45.878906 19.871094 45.511719 18.90625 Z M 45.511719 18.90625 "/>
</clipPath>
<clipPath id="clip59">
  <path d="M 19 22 L 35 22 L 35 41 L 19 41 Z M 19 22 "/>
</clipPath>
<clipPath id="clip60">
  <path d="M 45.511719 18.90625 L 43.824219 15.929688 C 43.128906 14.792969 41.578125 14.484375 40.375 15.078125 L 27.183594 22.9375 L 13.992188 15.078125 C 12.789062 14.484375 11.238281 14.792969 10.542969 15.929688 L 8.855469 18.90625 C 8.484375 19.871094 8.277344 21.464844 9.773438 22.371094 L 23.121094 30.085938 L 23.121094 45.609375 C 23.121094 46.710938 24.015625 47.605469 25.117188 47.605469 L 29.25 47.605469 C 30.351562 47.605469 31.242188 46.710938 31.242188 45.609375 L 31.242188 30.085938 L 44.589844 22.371094 C 46.089844 21.464844 45.878906 19.871094 45.511719 18.90625 Z M 45.511719 18.90625 "/>
</clipPath>
<clipPath id="clip61">
  <path d="M 20 22 L 35 22 L 35 40 L 20 40 Z M 20 22 "/>
</clipPath>
<clipPath id="clip62">
  <path d="M 45.511719 18.90625 L 43.824219 15.929688 C 43.128906 14.792969 41.578125 14.484375 40.375 15.078125 L 27.183594 22.9375 L 13.992188 15.078125 C 12.789062 14.484375 11.238281 14.792969 10.542969 15.929688 L 8.855469 18.90625 C 8.484375 19.871094 8.277344 21.464844 9.773438 22.371094 L 23.121094 30.085938 L 23.121094 45.609375 C 23.121094 46.710938 24.015625 47.605469 25.117188 47.605469 L 29.25 47.605469 C 30.351562 47.605469 31.242188 46.710938 31.242188 45.609375 L 31.242188 30.085938 L 44.589844 22.371094 C 46.089844 21.464844 45.878906 19.871094 45.511719 18.90625 Z M 45.511719 18.90625 "/>
</clipPath>
<clipPath id="clip63">
  <path d="M 20 23 L 34 23 L 34 40 L 20 40 Z M 20 23 "/>
</clipPath>
<clipPath id="clip64">
  <path d="M 45.511719 18.90625 L 43.824219 15.929688 C 43.128906 14.792969 41.578125 14.484375 40.375 15.078125 L 27.183594 22.9375 L 13.992188 15.078125 C 12.789062 14.484375 11.238281 14.792969 10.542969 15.929688 L 8.855469 18.90625 C 8.484375 19.871094 8.277344 21.464844 9.773438 22.371094 L 23.121094 30.085938 L 23.121094 45.609375 C 23.121094 46.710938 24.015625 47.605469 25.117188 47.605469 L 29.25 47.605469 C 30.351562 47.605469 31.242188 46.710938 31.242188 45.609375 L 31.242188 30.085938 L 44.589844 22.371094 C 46.089844 21.464844 45.878906 19.871094 45.511719 18.90625 Z M 45.511719 18.90625 "/>
</clipPath>
<clipPath id="clip65">
  <path d="M 21 23 L 34 23 L 34 39 L 21 39 Z M 21 23 "/>
</clipPath>
<clipPath id="clip66">
  <path d="M 45.511719 18.90625 L 43.824219 15.929688 C 43.128906 14.792969 41.578125 14.484375 40.375 15.078125 L 27.183594 22.9375 L 13.992188 15.078125 C 12.789062 14.484375 11.238281 14.792969 10.542969 15.929688 L 8.855469 18.90625 C 8.484375 19.871094 8.277344 21.464844 9.773438 22.371094 L 23.121094 30.085938 L 23.121094 45.609375 C 23.121094 46.710938 24.015625 47.605469 25.117188 47.605469 L 29.25 47.605469 C 30.351562 47.605469 31.242188 46.710938 31.242188 45.609375 L 31.242188 30.085938 L 44.589844 22.371094 C 46.089844 21.464844 45.878906 19.871094 45.511719 18.90625 Z M 45.511719 18.90625 "/>
</clipPath>
</defs>
<g id="surface1">
<path style=" stroke:none;fill-rule:nonzero;fill:rgb(92.941176%,92.941176%,92.941176%);fill-opacity:1;" d="M 12.726562 53.855469 C 5.949219 53.855469 0.4375 48.335938 0.4375 41.550781 L 0.4375 12.769531 C 0.4375 5.984375 5.949219 0.464844 12.726562 0.464844 L 41.484375 0.464844 C 48.261719 0.464844 53.773438 5.984375 53.773438 12.769531 L 53.773438 41.550781 C 53.773438 48.335938 48.261719 53.855469 41.484375 53.855469 L 12.726562 53.855469 "/>
<path style=" stroke:none;fill-rule:nonzero;fill:rgb(92.941176%,92.941176%,92.941176%);fill-opacity:1;" d="M 12.726562 53.195312 C 6.308594 53.195312 1.09375 47.976562 1.09375 41.550781 L 1.09375 12.769531 C 1.09375 6.34375 6.308594 1.125 12.726562 1.125 L 41.484375 1.125 C 47.902344 1.125 53.117188 6.34375 53.117188 12.769531 L 53.117188 41.550781 C 53.117188 47.976562 47.902344 53.195312 41.484375 53.195312 L 12.726562 53.195312 "/>
<path style=" stroke:none;fill-rule:nonzero;fill:rgb(92.941176%,92.941176%,92.941176%);fill-opacity:1;" d="M 41.484375 52.539062 L 12.726562 52.539062 C 6.667969 52.539062 1.753906 47.621094 1.753906 41.550781 L 1.753906 12.769531 C 1.753906 6.703125 6.667969 1.785156 12.726562 1.785156 L 41.484375 1.785156 C 47.542969 1.785156 52.457031 6.703125 52.457031 12.769531 L 52.457031 41.550781 C 52.457031 47.621094 47.542969 52.539062 41.484375 52.539062 "/>
<path style=" stroke:none;fill-rule:nonzero;fill:rgb(100%,100%,100%);fill-opacity:1;" d="M 41.484375 52.539062 L 12.726562 52.539062 C 6.667969 52.539062 1.753906 47.621094 1.753906 41.550781 L 1.753906 12.769531 C 1.753906 6.703125 6.667969 1.785156 12.726562 1.785156 L 41.484375 1.785156 C 47.542969 1.785156 52.457031 6.703125 52.457031 12.769531 L 52.457031 41.550781 C 52.457031 47.621094 47.542969 52.539062 41.484375 52.539062 "/>
<path style=" stroke:none;fill-rule:nonzero;fill:rgb(6.27451%,13.333333%,19.607843%);fill-opacity:1;" d="M 8.855469 36.199219 L 10.542969 39.175781 C 11.238281 40.3125 12.789062 40.621094 13.992188 40.027344 L 27.183594 32.496094 L 40.375 40.027344 C 41.578125 40.621094 43.128906 40.3125 43.824219 39.175781 L 45.511719 36.199219 C 45.878906 35.234375 46.089844 33.640625 44.589844 32.734375 L 31.242188 25.347656 L 31.242188 9.496094 C 31.242188 8.394531 30.351562 7.5 29.25 7.5 L 25.117188 7.5 C 24.015625 7.5 23.121094 8.394531 23.121094 9.496094 L 23.121094 25.347656 L 9.773438 32.734375 C 8.277344 33.640625 8.484375 35.234375 8.855469 36.199219 "/>
<g clip-path="url(#clip1)" clip-rule="nonzero">
<g clip-path="url(#clip2)" clip-rule="nonzero">
<path style=" stroke:none;fill-rule:nonzero;fill:rgb(16.078431%,52.941176%,44.313725%);fill-opacity:1;" d="M 8.277344 14.484375 L 46.089844 14.484375 L 46.089844 47.605469 L 8.277344 47.605469 L 8.277344 14.484375 "/>
<path style=" stroke:none;fill-rule:nonzero;fill:rgb(16.078431%,52.941176%,44.313725%);fill-opacity:1;" d="M 46.242188 31.347656 L 46.242188 44.582031 L 47.230469 44.582031 C 46.878906 45.371094 46.5 46.132812 46.089844 46.871094 C 45.882812 47.242188 45.671875 47.605469 45.453125 47.960938 L 45.453125 47.761719 L 8.914062 47.761719 L 8.914062 47.960938 C 8.695312 47.605469 8.480469 47.242188 8.277344 46.871094 C 7.867188 46.132812 7.484375 45.371094 7.132812 44.582031 L 8.121094 44.582031 L 8.121094 18.117188 L 7.132812 18.117188 C 7.484375 17.328125 7.867188 16.566406 8.277344 15.828125 C 8.6875 15.085938 9.125 14.375 9.589844 13.6875 L 9.589844 14.328125 L 44.777344 14.328125 L 44.777344 13.6875 C 45.242188 14.375 45.679688 15.085938 46.089844 15.828125 C 46.5 16.566406 46.878906 17.328125 47.230469 18.117188 L 46.242188 18.117188 L 46.242188 31.347656 "/>
<path style=" stroke:none;fill-rule:nonzero;fill:rgb(16.078431%,53.333333%,44.313725%);fill-opacity:1;" d="M 46.242188 31.347656 L 46.242188 44.398438 L 46.953125 44.398438 C 46.609375 45.175781 46.234375 45.929688 45.828125 46.65625 C 45.425781 47.386719 44.992188 48.089844 44.535156 48.765625 L 44.535156 47.761719 L 9.832031 47.761719 L 9.832031 48.765625 C 9.375 48.089844 8.941406 47.386719 8.539062 46.65625 C 8.132812 45.929688 7.757812 45.175781 7.410156 44.398438 L 8.121094 44.398438 L 8.121094 18.296875 L 7.410156 18.296875 C 7.757812 17.523438 8.132812 16.769531 8.539062 16.039062 C 8.941406 15.3125 9.375 14.609375 9.832031 13.933594 L 9.832031 14.328125 L 44.535156 14.328125 L 44.535156 13.933594 C 44.992188 14.609375 45.425781 15.3125 45.828125 16.039062 C 46.234375 16.769531 46.609375 17.523438 46.953125 18.296875 L 46.242188 18.296875 L 46.242188 31.347656 "/>
<path style=" stroke:none;fill-rule:nonzero;fill:rgb(16.470588%,53.72549%,44.705882%);fill-opacity:1;" d="M 46.242188 31.347656 L 46.242188 44.21875 L 46.675781 44.21875 C 46.335938 44.980469 45.964844 45.726562 45.566406 46.441406 C 45.167969 47.160156 44.742188 47.855469 44.289062 48.523438 L 44.289062 47.761719 L 10.074219 47.761719 L 10.074219 48.523438 C 9.625 47.855469 9.199219 47.160156 8.800781 46.441406 C 8.402344 45.726562 8.03125 44.980469 7.6875 44.21875 L 8.121094 44.21875 L 8.121094 18.480469 L 7.6875 18.480469 C 8.03125 17.714844 8.402344 16.972656 8.800781 16.253906 C 9.199219 15.535156 9.625 14.84375 10.074219 14.175781 L 10.074219 14.328125 L 44.289062 14.328125 L 44.289062 14.175781 C 44.742188 14.84375 45.167969 15.535156 45.566406 16.253906 C 45.964844 16.972656 46.335938 17.714844 46.675781 18.480469 L 46.242188 18.480469 L 46.242188 31.347656 "/>
<path style=" stroke:none;fill-rule:nonzero;fill:rgb(16.862745%,54.117647%,44.705882%);fill-opacity:1;" d="M 46.242188 31.347656 L 46.242188 41.707031 L 47.320312 41.707031 C 46.769531 43.300781 46.089844 44.8125 45.304688 46.230469 C 44.914062 46.9375 44.492188 47.621094 44.046875 48.277344 L 44.046875 47.761719 L 10.316406 47.761719 L 10.316406 48.277344 C 9.871094 47.621094 9.453125 46.9375 9.058594 46.230469 C 8.273438 44.8125 7.597656 43.300781 7.046875 41.707031 L 8.121094 41.707031 L 8.121094 20.992188 L 7.046875 20.992188 C 7.597656 19.398438 8.273438 17.886719 9.058594 16.46875 C 9.453125 15.761719 9.871094 15.078125 10.316406 14.421875 C 10.542969 14.09375 10.769531 13.769531 11.003906 13.457031 L 11.003906 14.328125 L 43.359375 14.328125 L 43.359375 13.457031 C 43.597656 13.769531 43.824219 14.09375 44.046875 14.421875 C 44.492188 15.078125 44.914062 15.761719 45.304688 16.46875 C 46.089844 17.886719 46.769531 19.398438 47.320312 20.992188 L 46.242188 20.992188 L 46.242188 31.347656 "/>
<path style=" stroke:none;fill-rule:nonzero;fill:rgb(16.862745%,54.509804%,45.098039%);fill-opacity:1;" d="M 46.242188 31.347656 L 46.242188 41.558594 L 47.03125 41.558594 C 46.484375 43.128906 45.820312 44.617188 45.042969 46.015625 C 44.65625 46.710938 44.242188 47.386719 43.804688 48.035156 L 43.804688 47.761719 L 10.5625 47.761719 L 10.5625 48.035156 C 10.121094 47.386719 9.707031 46.710938 9.320312 46.015625 C 8.546875 44.617188 7.878906 43.128906 7.335938 41.558594 L 8.121094 41.558594 L 8.121094 21.140625 L 7.335938 21.140625 C 7.878906 19.570312 8.546875 18.078125 9.320312 16.683594 C 9.707031 15.988281 10.121094 15.3125 10.5625 14.664062 C 10.78125 14.339844 11.007812 14.023438 11.238281 13.714844 L 11.238281 14.328125 L 43.128906 14.328125 L 43.128906 13.714844 C 43.359375 14.023438 43.585938 14.339844 43.804688 14.664062 C 44.242188 15.3125 44.65625 15.988281 45.042969 16.683594 C 45.820312 18.078125 46.484375 19.570312 47.03125 21.140625 L 46.242188 21.140625 L 46.242188 31.347656 "/>
<path style=" stroke:none;fill-rule:nonzero;fill:rgb(17.254902%,54.901961%,45.098039%);fill-opacity:1;" d="M 46.242188 31.347656 L 46.242188 41.410156 L 46.742188 41.410156 C 46.203125 42.957031 45.546875 44.425781 44.785156 45.800781 C 44.402344 46.488281 43.996094 47.152344 43.5625 47.789062 L 43.5625 47.761719 L 10.804688 47.761719 L 10.804688 47.789062 C 10.371094 47.152344 9.964844 46.488281 9.582031 45.800781 C 8.820312 44.425781 8.164062 42.957031 7.625 41.410156 L 8.121094 41.410156 L 8.121094 21.289062 L 7.625 21.289062 C 8.164062 19.742188 8.820312 18.273438 9.582031 16.898438 C 9.964844 16.210938 10.371094 15.546875 10.804688 14.910156 C 11.019531 14.589844 11.242188 14.277344 11.472656 13.972656 L 11.472656 14.328125 L 42.894531 14.328125 L 42.894531 13.972656 C 43.125 14.277344 43.34375 14.589844 43.5625 14.910156 C 43.996094 15.546875 44.402344 16.210938 44.785156 16.898438 C 45.546875 18.273438 46.203125 19.742188 46.742188 21.289062 L 46.242188 21.289062 L 46.242188 31.347656 "/>
<path style=" stroke:none;fill-rule:nonzero;fill:rgb(17.254902%,55.294118%,45.490196%);fill-opacity:1;" d="M 46.242188 31.347656 L 46.242188 41.261719 L 46.449219 41.261719 C 45.921875 42.785156 45.273438 44.230469 44.523438 45.585938 C 44.148438 46.261719 43.746094 46.917969 43.320312 47.546875 C 43.105469 47.859375 42.886719 48.167969 42.660156 48.46875 L 42.660156 47.761719 L 11.703125 47.761719 L 11.703125 48.46875 C 11.480469 48.167969 11.261719 47.859375 11.046875 47.546875 C 10.621094 46.917969 10.21875 46.261719 9.84375 45.585938 C 9.09375 44.230469 8.445312 42.785156 7.914062 41.261719 L 8.121094 41.261719 L 8.121094 21.4375 L 7.914062 21.4375 C 8.972656 18.390625 10.503906 15.648438 12.398438 13.34375 L 12.398438 14.328125 L 41.96875 14.328125 L 41.96875 13.34375 C 43.859375 15.648438 45.390625 18.390625 46.449219 21.4375 L 46.242188 21.4375 L 46.242188 31.347656 "/>
<path style=" stroke:none;fill-rule:nonzero;fill:rgb(17.254902%,55.686275%,45.490196%);fill-opacity:1;" d="M 46.242188 31.347656 L 46.242188 38.808594 L 46.851562 38.808594 C 46.652344 39.59375 46.421875 40.359375 46.160156 41.109375 C 45.640625 42.609375 45 44.035156 44.261719 45.371094 C 43.890625 46.039062 43.496094 46.683594 43.074219 47.300781 C 42.867188 47.609375 42.648438 47.914062 42.429688 48.210938 L 42.429688 47.761719 L 11.9375 47.761719 L 11.9375 48.210938 C 11.714844 47.914062 11.5 47.609375 11.289062 47.300781 C 10.871094 46.683594 10.476562 46.039062 10.105469 45.371094 C 9.363281 44.035156 8.726562 42.609375 8.207031 41.109375 C 7.945312 40.359375 7.714844 39.59375 7.511719 38.808594 L 8.121094 38.808594 L 8.121094 23.890625 L 7.511719 23.890625 C 7.714844 23.105469 7.945312 22.335938 8.207031 21.585938 C 9.25 18.585938 10.757812 15.886719 12.621094 13.617188 L 12.621094 14.328125 L 41.746094 14.328125 L 41.746094 13.617188 C 43.609375 15.886719 45.117188 18.585938 46.160156 21.585938 C 46.421875 22.335938 46.652344 23.105469 46.851562 23.890625 L 46.242188 23.890625 L 46.242188 31.347656 "/>
<path style=" stroke:none;fill-rule:nonzero;fill:rgb(17.647059%,56.078431%,45.882353%);fill-opacity:1;" d="M 46.242188 31.347656 L 46.242188 36.324219 L 47.050781 36.324219 C 46.78125 37.933594 46.382812 39.484375 45.871094 40.960938 C 44.84375 43.917969 43.359375 46.578125 41.523438 48.8125 L 41.523438 47.761719 L 12.84375 47.761719 L 12.84375 48.8125 C 11.007812 46.578125 9.523438 43.917969 8.496094 40.960938 C 7.984375 39.484375 7.585938 37.933594 7.3125 36.324219 L 8.121094 36.324219 L 8.121094 26.371094 L 7.3125 26.371094 C 7.585938 24.765625 7.984375 23.214844 8.496094 21.738281 C 9.523438 18.78125 11.007812 16.121094 12.84375 13.886719 L 12.84375 14.328125 L 41.523438 14.328125 L 41.523438 13.886719 C 43.359375 16.121094 44.84375 18.78125 45.871094 21.738281 C 46.382812 23.214844 46.78125 24.765625 47.050781 26.371094 L 46.242188 26.371094 L 46.242188 31.347656 "/>
<path style=" stroke:none;fill-rule:nonzero;fill:rgb(17.647059%,56.470588%,45.882353%);fill-opacity:1;" d="M 47.148438 31.347656 C 47.148438 38.0625 44.914062 44.140625 41.300781 48.539062 L 41.300781 47.761719 L 13.066406 47.761719 L 13.066406 48.539062 C 9.453125 44.140625 7.21875 38.0625 7.21875 31.347656 C 7.21875 24.636719 9.453125 18.558594 13.066406 14.15625 L 13.066406 14.328125 L 41.300781 14.328125 L 41.300781 14.15625 C 44.914062 18.558594 47.148438 24.636719 47.148438 31.347656 "/>
<path style=" stroke:none;fill-rule:nonzero;fill:rgb(18.039216%,56.862745%,46.27451%);fill-opacity:1;" d="M 46.832031 31.347656 C 46.832031 37.957031 44.632812 43.9375 41.078125 48.269531 L 41.078125 47.761719 L 13.289062 47.761719 L 13.289062 48.269531 C 9.730469 43.9375 7.53125 37.957031 7.53125 31.347656 C 7.53125 24.742188 9.730469 18.757812 13.289062 14.429688 C 13.511719 14.160156 13.738281 13.894531 13.96875 13.636719 L 13.96875 14.328125 L 40.394531 14.328125 L 40.394531 13.636719 C 40.628906 13.894531 40.855469 14.160156 41.078125 14.429688 C 44.632812 18.757812 46.832031 24.742188 46.832031 31.347656 "/>
<path style=" stroke:none;fill-rule:nonzero;fill:rgb(18.039216%,57.254902%,46.666667%);fill-opacity:1;" d="M 46.519531 31.347656 C 46.519531 37.851562 44.355469 43.738281 40.855469 47.996094 L 40.855469 47.761719 L 13.511719 47.761719 L 13.511719 47.996094 C 10.011719 43.738281 7.847656 37.851562 7.847656 31.347656 C 7.847656 24.847656 10.011719 18.960938 13.511719 14.699219 C 13.730469 14.433594 13.953125 14.175781 14.183594 13.921875 L 14.183594 14.328125 L 40.183594 14.328125 L 40.183594 13.921875 C 40.414062 14.175781 40.636719 14.433594 40.855469 14.699219 C 44.355469 18.960938 46.519531 24.847656 46.519531 31.347656 "/>
<path style=" stroke:none;fill-rule:nonzero;fill:rgb(18.431373%,57.647059%,46.666667%);fill-opacity:1;" d="M 46.203125 31.347656 C 46.203125 37.746094 44.074219 43.535156 40.632812 47.726562 C 40.417969 47.988281 40.199219 48.246094 39.972656 48.492188 L 39.972656 47.761719 L 14.394531 47.761719 L 14.394531 48.492188 C 14.167969 48.246094 13.949219 47.988281 13.734375 47.726562 C 10.292969 43.535156 8.160156 37.746094 8.160156 31.347656 C 8.160156 24.953125 10.292969 19.164062 13.734375 14.972656 C 14.164062 14.449219 14.613281 13.949219 15.082031 13.476562 L 15.082031 14.328125 L 39.28125 14.328125 L 39.28125 13.476562 C 39.753906 13.949219 40.203125 14.449219 40.632812 14.972656 C 44.074219 19.164062 46.203125 24.953125 46.203125 31.347656 "/>
<path style=" stroke:none;fill-rule:nonzero;fill:rgb(18.431373%,58.039216%,47.058824%);fill-opacity:1;" d="M 45.890625 31.347656 C 45.890625 37.640625 43.796875 43.332031 40.410156 47.457031 C 40.199219 47.714844 39.980469 47.964844 39.761719 48.210938 L 39.761719 47.761719 L 14.605469 47.761719 L 14.605469 48.210938 C 14.382812 47.964844 14.167969 47.714844 13.957031 47.457031 C 10.570312 43.332031 8.476562 37.640625 8.476562 31.347656 C 8.476562 25.058594 10.570312 19.363281 13.957031 15.242188 C 14.378906 14.726562 14.824219 14.238281 15.285156 13.773438 L 15.285156 14.328125 L 39.082031 14.328125 L 39.082031 13.773438 C 39.542969 14.238281 39.988281 14.726562 40.410156 15.242188 C 43.796875 19.363281 45.890625 25.058594 45.890625 31.347656 "/>
<path style=" stroke:none;fill-rule:nonzero;fill:rgb(18.823529%,58.431373%,47.058824%);fill-opacity:1;" d="M 45.574219 31.347656 C 45.574219 37.53125 43.515625 43.132812 40.1875 47.183594 C 39.769531 47.691406 39.335938 48.171875 38.882812 48.628906 L 38.882812 47.761719 L 15.484375 47.761719 L 15.484375 48.628906 C 15.03125 48.171875 14.59375 47.691406 14.179688 47.183594 C 10.851562 43.132812 8.792969 37.53125 8.792969 31.347656 C 8.792969 25.164062 10.851562 19.566406 14.179688 15.515625 C 14.59375 15.007812 15.03125 14.523438 15.484375 14.070312 L 15.484375 14.328125 L 38.882812 14.328125 L 38.882812 14.070312 C 39.335938 14.523438 39.769531 15.007812 40.1875 15.515625 C 43.515625 19.566406 45.574219 25.164062 45.574219 31.347656 "/>
</g>
</g>
<g clip-path="url(#clip3)" clip-rule="nonzero">
<g clip-path="url(#clip4)" clip-rule="nonzero">
<path style=" stroke:none;fill-rule:nonzero;fill:rgb(18.823529%,58.823529%,47.45098%);fill-opacity:1;" d="M 45.257812 31.347656 C 45.257812 37.425781 43.234375 42.929688 39.964844 46.914062 C 39.554688 47.410156 39.128906 47.886719 38.679688 48.332031 L 38.679688 47.761719 L 15.683594 47.761719 L 15.683594 48.332031 C 15.238281 47.886719 14.808594 47.410156 14.402344 46.914062 C 11.128906 42.929688 9.105469 37.425781 9.105469 31.347656 C 9.105469 25.269531 11.128906 19.769531 14.402344 15.785156 C 14.808594 15.289062 15.238281 14.8125 15.683594 14.363281 C 15.910156 14.140625 16.136719 13.921875 16.367188 13.710938 L 16.367188 14.328125 L 38 14.328125 L 38 13.710938 C 38.230469 13.921875 38.457031 14.140625 38.679688 14.363281 C 39.128906 14.8125 39.554688 15.289062 39.964844 15.785156 C 43.234375 19.769531 45.257812 25.269531 45.257812 31.347656 "/>
</g>
</g>
<g clip-path="url(#clip5)" clip-rule="nonzero">
<g clip-path="url(#clip6)" clip-rule="nonzero">
<path style=" stroke:none;fill-rule:nonzero;fill:rgb(19.215686%,59.215686%,47.45098%);fill-opacity:1;" d="M 44.945312 31.347656 C 44.945312 37.320312 42.957031 42.726562 39.742188 46.640625 C 39.339844 47.132812 38.917969 47.597656 38.480469 48.039062 L 38.480469 47.761719 L 15.886719 47.761719 L 15.886719 48.039062 C 15.445312 47.597656 15.027344 47.132812 14.625 46.640625 C 11.410156 42.726562 9.421875 37.320312 9.421875 31.347656 C 9.421875 25.378906 11.410156 19.96875 14.625 16.054688 C 15.425781 15.078125 16.308594 14.191406 17.253906 13.414062 L 17.253906 14.328125 L 37.113281 14.328125 L 37.113281 13.414062 C 38.058594 14.191406 38.9375 15.078125 39.742188 16.054688 C 42.957031 19.96875 44.945312 25.378906 44.945312 31.347656 "/>
<path style=" stroke:none;fill-rule:nonzero;fill:rgb(19.215686%,59.607843%,47.843137%);fill-opacity:1;" d="M 44.628906 31.347656 C 44.628906 37.214844 42.675781 42.527344 39.519531 46.371094 C 39.125 46.851562 38.710938 47.308594 38.28125 47.742188 C 38.066406 47.957031 37.84375 48.167969 37.621094 48.371094 L 37.621094 47.761719 L 16.746094 47.761719 L 16.746094 48.371094 C 16.519531 48.167969 16.300781 47.957031 16.085938 47.742188 C 15.65625 47.308594 15.242188 46.851562 14.847656 46.371094 C 11.691406 42.527344 9.738281 37.214844 9.738281 31.347656 C 9.738281 25.484375 11.691406 20.171875 14.847656 16.328125 C 15.636719 15.367188 16.5 14.496094 17.429688 13.734375 L 17.429688 14.328125 L 36.9375 14.328125 L 36.9375 13.734375 C 37.867188 14.496094 38.730469 15.367188 39.519531 16.328125 C 42.675781 20.171875 44.628906 25.484375 44.628906 31.347656 "/>
</g>
</g>
<g clip-path="url(#clip7)" clip-rule="nonzero">
<g clip-path="url(#clip8)" clip-rule="nonzero">
<path style=" stroke:none;fill-rule:nonzero;fill:rgb(19.607843%,60%,47.843137%);fill-opacity:1;" d="M 44.3125 31.347656 C 44.3125 37.109375 42.398438 42.324219 39.296875 46.097656 C 38.523438 47.042969 37.671875 47.898438 36.761719 48.648438 L 36.761719 47.761719 L 17.605469 47.761719 L 17.605469 48.648438 C 16.695312 47.898438 15.84375 47.042969 15.070312 46.097656 C 11.96875 42.324219 10.050781 37.109375 10.050781 31.347656 C 10.050781 25.589844 11.96875 20.375 15.070312 16.597656 C 15.84375 15.65625 16.695312 14.800781 17.605469 14.050781 L 17.605469 14.328125 L 36.761719 14.328125 L 36.761719 14.050781 C 37.671875 14.800781 38.523438 15.65625 39.296875 16.597656 C 42.398438 20.375 44.3125 25.589844 44.3125 31.347656 "/>
</g>
</g>
<g clip-path="url(#clip9)" clip-rule="nonzero">
<g clip-path="url(#clip10)" clip-rule="nonzero">
<path style=" stroke:none;fill-rule:nonzero;fill:rgb(19.607843%,60.392157%,48.235294%);fill-opacity:1;" d="M 44 31.347656 C 44 37.003906 42.117188 42.121094 39.074219 45.828125 C 38.3125 46.753906 37.480469 47.59375 36.585938 48.328125 L 36.585938 47.761719 L 17.78125 47.761719 L 17.78125 48.328125 C 16.886719 47.59375 16.054688 46.753906 15.292969 45.828125 C 12.25 42.121094 10.367188 37.003906 10.367188 31.347656 C 10.367188 25.695312 12.25 20.574219 15.292969 16.871094 C 16.054688 15.945312 16.886719 15.105469 17.78125 14.371094 C 18.226562 14 18.691406 13.660156 19.167969 13.34375 L 19.167969 14.328125 L 35.199219 14.328125 L 35.199219 13.34375 C 35.675781 13.660156 36.136719 14 36.585938 14.371094 C 37.480469 15.105469 38.3125 15.945312 39.074219 16.871094 C 42.117188 20.574219 44 25.695312 44 31.347656 "/>
<path style=" stroke:none;fill-rule:nonzero;fill:rgb(20%,60.784314%,48.235294%);fill-opacity:1;" d="M 43.683594 31.347656 C 43.683594 36.898438 41.835938 41.921875 38.851562 45.558594 C 38.105469 46.464844 37.285156 47.289062 36.410156 48.011719 L 36.410156 47.761719 L 17.957031 47.761719 L 17.957031 48.011719 C 17.078125 47.289062 16.261719 46.464844 15.515625 45.558594 C 12.527344 41.921875 10.683594 36.898438 10.683594 31.347656 C 10.683594 25.800781 12.527344 20.777344 15.515625 17.140625 C 16.261719 16.230469 17.078125 15.410156 17.957031 14.6875 C 18.394531 14.328125 18.851562 13.992188 19.316406 13.679688 L 19.316406 14.328125 L 35.046875 14.328125 L 35.046875 13.679688 C 35.515625 13.992188 35.96875 14.328125 36.410156 14.6875 C 37.285156 15.410156 38.105469 16.230469 38.851562 17.140625 C 41.835938 20.777344 43.683594 25.800781 43.683594 31.347656 "/>
<path style=" stroke:none;fill-rule:nonzero;fill:rgb(20%,61.176471%,48.627451%);fill-opacity:1;" d="M 43.371094 31.347656 C 43.371094 36.792969 41.558594 41.71875 38.628906 45.285156 C 37.894531 46.175781 37.09375 46.984375 36.234375 47.691406 C 35.800781 48.046875 35.355469 48.375 34.898438 48.679688 L 34.898438 47.761719 L 19.46875 47.761719 L 19.46875 48.679688 C 19.007812 48.375 18.5625 48.046875 18.132812 47.691406 C 17.273438 46.984375 16.46875 46.175781 15.738281 45.285156 C 12.808594 41.71875 10.996094 36.792969 10.996094 31.347656 C 10.996094 25.90625 12.808594 20.980469 15.738281 17.414062 C 16.46875 16.519531 17.273438 15.714844 18.132812 15.003906 C 18.5625 14.652344 19.007812 14.320312 19.46875 14.019531 L 19.46875 14.328125 L 34.898438 14.328125 L 34.898438 14.019531 C 35.355469 14.320312 35.800781 14.652344 36.234375 15.003906 C 37.09375 15.714844 37.894531 16.519531 38.628906 17.414062 C 41.558594 20.980469 43.371094 25.90625 43.371094 31.347656 "/>
</g>
</g>
<g clip-path="url(#clip11)" clip-rule="nonzero">
<g clip-path="url(#clip12)" clip-rule="nonzero">
<path style=" stroke:none;fill-rule:nonzero;fill:rgb(20.392157%,61.568627%,49.019608%);fill-opacity:1;" d="M 43.054688 31.347656 C 43.054688 36.6875 41.277344 41.515625 38.40625 45.015625 C 37.6875 45.890625 36.902344 46.679688 36.058594 47.375 C 35.632812 47.722656 35.199219 48.046875 34.75 48.34375 L 34.75 47.761719 L 19.617188 47.761719 L 19.617188 48.34375 C 19.167969 48.046875 18.730469 47.722656 18.308594 47.375 C 17.464844 46.679688 16.679688 45.890625 15.960938 45.015625 C 13.089844 41.515625 11.3125 36.6875 11.3125 31.347656 C 11.3125 26.011719 13.089844 21.179688 15.960938 17.683594 C 17.394531 15.933594 19.105469 14.519531 21.003906 13.542969 L 21.003906 14.328125 L 33.359375 14.328125 L 33.359375 13.542969 C 35.257812 14.519531 36.96875 15.933594 38.40625 17.683594 C 41.277344 21.179688 43.054688 26.011719 43.054688 31.347656 "/>
</g>
</g>
<g clip-path="url(#clip13)" clip-rule="nonzero">
<g clip-path="url(#clip14)" clip-rule="nonzero">
<path style=" stroke:none;fill-rule:nonzero;fill:rgb(20.392157%,61.960784%,49.019608%);fill-opacity:1;" d="M 42.738281 31.347656 C 42.738281 36.578125 41 41.316406 38.183594 44.742188 C 36.777344 46.457031 35.097656 47.84375 33.238281 48.804688 L 33.238281 47.761719 L 21.128906 47.761719 L 21.128906 48.804688 C 19.265625 47.84375 17.589844 46.457031 16.183594 44.742188 C 13.367188 41.316406 11.625 36.578125 11.625 31.347656 C 11.625 26.117188 13.367188 21.382812 16.183594 17.953125 C 17.589844 16.242188 19.265625 14.855469 21.128906 13.894531 L 21.128906 14.328125 L 33.238281 14.328125 L 33.238281 13.894531 C 35.097656 14.855469 36.777344 16.242188 38.183594 17.953125 C 41 21.382812 42.738281 26.117188 42.738281 31.347656 "/>
<path style=" stroke:none;fill-rule:nonzero;fill:rgb(20.784314%,62.352941%,49.411765%);fill-opacity:1;" d="M 42.425781 31.347656 C 42.425781 36.472656 40.71875 41.113281 37.960938 44.472656 C 36.582031 46.152344 34.9375 47.511719 33.117188 48.449219 L 33.117188 47.761719 L 21.25 47.761719 L 21.25 48.449219 C 19.425781 47.511719 17.785156 46.152344 16.40625 44.472656 C 13.648438 41.113281 11.941406 36.472656 11.941406 31.347656 C 11.941406 26.222656 13.648438 21.585938 16.40625 18.226562 C 17.785156 16.546875 19.425781 15.1875 21.25 14.25 L 21.25 14.328125 L 33.117188 14.328125 L 33.117188 14.25 C 34.9375 15.1875 36.582031 16.546875 37.960938 18.226562 C 40.71875 21.585938 42.425781 26.222656 42.425781 31.347656 "/>
</g>
</g>
<g clip-path="url(#clip15)" clip-rule="nonzero">
<g clip-path="url(#clip16)" clip-rule="nonzero">
<path style=" stroke:none;fill-rule:nonzero;fill:rgb(20.784314%,62.745098%,49.411765%);fill-opacity:1;" d="M 42.109375 31.347656 C 42.109375 36.367188 40.4375 40.910156 37.738281 44.203125 C 36.386719 45.847656 34.777344 47.175781 32.992188 48.097656 L 32.992188 47.761719 L 21.375 47.761719 L 21.375 48.097656 C 19.585938 47.175781 17.980469 45.847656 16.628906 44.203125 C 13.925781 40.910156 12.257812 36.367188 12.257812 31.347656 C 12.257812 26.332031 13.925781 21.785156 16.628906 18.496094 C 17.980469 16.851562 19.585938 15.523438 21.375 14.601562 C 22.265625 14.140625 23.203125 13.785156 24.175781 13.542969 L 24.175781 14.328125 L 30.191406 14.328125 L 30.191406 13.542969 C 31.164062 13.785156 32.101562 14.140625 32.992188 14.601562 C 34.777344 15.523438 36.386719 16.851562 37.738281 18.496094 C 40.4375 21.785156 42.109375 26.332031 42.109375 31.347656 "/>
</g>
</g>
<g clip-path="url(#clip17)" clip-rule="nonzero">
<g clip-path="url(#clip18)" clip-rule="nonzero">
<path style=" stroke:none;fill-rule:nonzero;fill:rgb(21.176471%,63.137255%,49.803922%);fill-opacity:1;" d="M 41.792969 31.347656 C 41.792969 36.261719 40.160156 40.710938 37.515625 43.929688 C 36.191406 45.539062 34.617188 46.84375 32.871094 47.742188 C 31.996094 48.191406 31.078125 48.542969 30.128906 48.78125 L 30.128906 47.761719 L 24.238281 47.761719 L 24.238281 48.78125 C 23.289062 48.542969 22.371094 48.191406 21.496094 47.742188 C 19.746094 46.84375 18.171875 45.539062 16.851562 43.929688 C 14.207031 40.710938 12.570312 36.261719 12.570312 31.347656 C 12.570312 21.523438 19.113281 13.558594 27.183594 13.558594 C 35.253906 13.558594 41.792969 21.523438 41.792969 31.347656 "/>
<path style=" stroke:none;fill-rule:nonzero;fill:rgb(21.176471%,63.529412%,49.803922%);fill-opacity:1;" d="M 41.480469 31.347656 C 41.480469 40.964844 35.078125 48.757812 27.183594 48.757812 C 19.289062 48.757812 12.886719 40.964844 12.886719 31.347656 C 12.886719 21.734375 19.289062 13.941406 27.183594 13.941406 C 35.078125 13.941406 41.480469 21.734375 41.480469 31.347656 "/>
</g>
</g>
<g clip-path="url(#clip19)" clip-rule="nonzero">
<g clip-path="url(#clip20)" clip-rule="nonzero">
<path style=" stroke:none;fill-rule:nonzero;fill:rgb(21.568627%,63.921569%,50.196078%);fill-opacity:1;" d="M 41.164062 31.347656 C 41.164062 40.75 34.90625 48.375 27.183594 48.375 C 19.460938 48.375 13.203125 40.75 13.203125 31.347656 C 13.203125 21.945312 19.460938 14.324219 27.183594 14.324219 C 34.90625 14.324219 41.164062 21.945312 41.164062 31.347656 "/>
</g>
</g>
<g clip-path="url(#clip21)" clip-rule="nonzero">
<g clip-path="url(#clip22)" clip-rule="nonzero">
<path style=" stroke:none;fill-rule:nonzero;fill:rgb(21.960784%,64.313725%,50.196078%);fill-opacity:1;" d="M 40.851562 31.347656 C 40.851562 40.539062 34.730469 47.992188 27.183594 47.992188 C 19.636719 47.992188 13.515625 40.539062 13.515625 31.347656 C 13.515625 22.160156 19.636719 14.707031 27.183594 14.707031 C 34.730469 14.707031 40.851562 22.160156 40.851562 31.347656 "/>
</g>
</g>
<g clip-path="url(#clip23)" clip-rule="nonzero">
<g clip-path="url(#clip24)" clip-rule="nonzero">
<path style=" stroke:none;fill-rule:nonzero;fill:rgb(21.960784%,64.705882%,50.588235%);fill-opacity:1;" d="M 40.535156 31.347656 C 40.535156 40.328125 34.558594 47.605469 27.183594 47.605469 C 19.808594 47.605469 13.832031 40.328125 13.832031 31.347656 C 13.832031 22.371094 19.808594 15.089844 27.183594 15.089844 C 34.558594 15.089844 40.535156 22.371094 40.535156 31.347656 "/>
</g>
</g>
<g clip-path="url(#clip25)" clip-rule="nonzero">
<g clip-path="url(#clip26)" clip-rule="nonzero">
<path style=" stroke:none;fill-rule:nonzero;fill:rgb(21.960784%,65.098039%,50.588235%);fill-opacity:1;" d="M 40.21875 31.347656 C 40.21875 40.117188 34.382812 47.222656 27.183594 47.222656 C 19.984375 47.222656 14.144531 40.117188 14.144531 31.347656 C 14.144531 22.582031 19.984375 15.476562 27.183594 15.476562 C 34.382812 15.476562 40.21875 22.582031 40.21875 31.347656 "/>
</g>
</g>
<g clip-path="url(#clip27)" clip-rule="nonzero">
<g clip-path="url(#clip28)" clip-rule="nonzero">
<path style=" stroke:none;fill-rule:nonzero;fill:rgb(22.352941%,65.490196%,50.980392%);fill-opacity:1;" d="M 39.90625 31.347656 C 39.90625 39.90625 34.210938 46.839844 27.183594 46.839844 C 20.15625 46.839844 14.460938 39.90625 14.460938 31.347656 C 14.460938 22.792969 20.15625 15.859375 27.183594 15.859375 C 34.210938 15.859375 39.90625 22.792969 39.90625 31.347656 "/>
</g>
</g>
<g clip-path="url(#clip29)" clip-rule="nonzero">
<g clip-path="url(#clip30)" clip-rule="nonzero">
<path style=" stroke:none;fill-rule:nonzero;fill:rgb(22.352941%,65.882353%,50.980392%);fill-opacity:1;" d="M 39.589844 31.347656 C 39.589844 39.691406 34.035156 46.457031 27.183594 46.457031 C 20.332031 46.457031 14.777344 39.691406 14.777344 31.347656 C 14.777344 23.003906 20.332031 16.242188 27.183594 16.242188 C 34.035156 16.242188 39.589844 23.003906 39.589844 31.347656 "/>
</g>
</g>
<g clip-path="url(#clip31)" clip-rule="nonzero">
<g clip-path="url(#clip32)" clip-rule="nonzero">
<path style=" stroke:none;fill-rule:nonzero;fill:rgb(22.745098%,66.27451%,51.372549%);fill-opacity:1;" d="M 39.273438 31.347656 C 39.273438 39.480469 33.859375 46.074219 27.183594 46.074219 C 20.503906 46.074219 15.089844 39.480469 15.089844 31.347656 C 15.089844 23.21875 20.503906 16.625 27.183594 16.625 C 33.859375 16.625 39.273438 23.21875 39.273438 31.347656 "/>
</g>
</g>
<g clip-path="url(#clip33)" clip-rule="nonzero">
<g clip-path="url(#clip34)" clip-rule="nonzero">
<path style=" stroke:none;fill-rule:nonzero;fill:rgb(23.137255%,67.058824%,51.372549%);fill-opacity:1;" d="M 38.960938 31.347656 C 38.960938 39.269531 33.6875 45.691406 27.183594 45.691406 C 20.679688 45.691406 15.40625 39.269531 15.40625 31.347656 C 15.40625 23.429688 20.679688 17.007812 27.183594 17.007812 C 33.6875 17.007812 38.960938 23.429688 38.960938 31.347656 "/>
<path style=" stroke:none;fill-rule:nonzero;fill:rgb(23.137255%,67.45098%,51.764706%);fill-opacity:1;" d="M 38.644531 31.347656 C 38.644531 39.058594 33.511719 45.304688 27.183594 45.304688 C 20.851562 45.304688 15.722656 39.058594 15.722656 31.347656 C 15.722656 23.640625 20.851562 17.390625 27.183594 17.390625 C 33.511719 17.390625 38.644531 23.640625 38.644531 31.347656 "/>
</g>
</g>
<g clip-path="url(#clip35)" clip-rule="nonzero">
<g clip-path="url(#clip36)" clip-rule="nonzero">
<path style=" stroke:none;fill-rule:nonzero;fill:rgb(23.529412%,67.843137%,51.764706%);fill-opacity:1;" d="M 38.328125 31.347656 C 38.328125 38.84375 33.339844 44.921875 27.183594 44.921875 C 21.027344 44.921875 16.035156 38.84375 16.035156 31.347656 C 16.035156 23.851562 21.027344 17.777344 27.183594 17.777344 C 33.339844 17.777344 38.328125 23.851562 38.328125 31.347656 "/>
</g>
</g>
<g clip-path="url(#clip37)" clip-rule="nonzero">
<g clip-path="url(#clip38)" clip-rule="nonzero">
<path style=" stroke:none;fill-rule:nonzero;fill:rgb(23.921569%,68.235294%,52.156863%);fill-opacity:1;" d="M 38.015625 31.347656 C 38.015625 38.632812 33.164062 44.539062 27.183594 44.539062 C 21.199219 44.539062 16.351562 38.632812 16.351562 31.347656 C 16.351562 24.066406 21.199219 18.160156 27.183594 18.160156 C 33.164062 18.160156 38.015625 24.066406 38.015625 31.347656 "/>
</g>
</g>
<g clip-path="url(#clip39)" clip-rule="nonzero">
<g clip-path="url(#clip40)" clip-rule="nonzero">
<path style=" stroke:none;fill-rule:nonzero;fill:rgb(23.921569%,68.627451%,52.156863%);fill-opacity:1;" d="M 37.699219 31.347656 C 37.699219 38.421875 32.992188 44.15625 27.183594 44.15625 C 21.375 44.15625 16.667969 38.421875 16.667969 31.347656 C 16.667969 24.277344 21.375 18.542969 27.183594 18.542969 C 32.992188 18.542969 37.699219 24.277344 37.699219 31.347656 "/>
</g>
</g>
<g clip-path="url(#clip41)" clip-rule="nonzero">
<g clip-path="url(#clip42)" clip-rule="nonzero">
<path style=" stroke:none;fill-rule:nonzero;fill:rgb(23.921569%,69.019608%,52.54902%);fill-opacity:1;" d="M 37.386719 31.347656 C 37.386719 38.210938 32.816406 43.773438 27.183594 43.773438 C 21.546875 43.773438 16.980469 38.210938 16.980469 31.347656 C 16.980469 24.488281 21.546875 18.925781 27.183594 18.925781 C 32.816406 18.925781 37.386719 24.488281 37.386719 31.347656 "/>
</g>
</g>
<g clip-path="url(#clip43)" clip-rule="nonzero">
<g clip-path="url(#clip44)" clip-rule="nonzero">
<path style=" stroke:none;fill-rule:nonzero;fill:rgb(24.313725%,69.411765%,52.941176%);fill-opacity:1;" d="M 37.070312 31.347656 C 37.070312 38 32.644531 43.386719 27.183594 43.386719 C 21.722656 43.386719 17.296875 38 17.296875 31.347656 C 17.296875 24.699219 21.722656 19.308594 27.183594 19.308594 C 32.644531 19.308594 37.070312 24.699219 37.070312 31.347656 "/>
</g>
</g>
<g clip-path="url(#clip45)" clip-rule="nonzero">
<g clip-path="url(#clip46)" clip-rule="nonzero">
<path style=" stroke:none;fill-rule:nonzero;fill:rgb(24.705882%,69.803922%,52.941176%);fill-opacity:1;" d="M 36.753906 31.347656 C 36.753906 37.785156 32.46875 43.003906 27.183594 43.003906 C 21.898438 43.003906 17.609375 37.785156 17.609375 31.347656 C 17.609375 24.910156 21.898438 19.695312 27.183594 19.695312 C 32.46875 19.695312 36.753906 24.910156 36.753906 31.347656 "/>
</g>
</g>
<g clip-path="url(#clip47)" clip-rule="nonzero">
<g clip-path="url(#clip48)" clip-rule="nonzero">
<path style=" stroke:none;fill-rule:nonzero;fill:rgb(24.705882%,70.196078%,53.333333%);fill-opacity:1;" d="M 36.441406 31.347656 C 36.441406 37.574219 32.296875 42.621094 27.183594 42.621094 C 22.070312 42.621094 17.925781 37.574219 17.925781 31.347656 C 17.925781 25.125 22.070312 20.078125 27.183594 20.078125 C 32.296875 20.078125 36.441406 25.125 36.441406 31.347656 "/>
</g>
</g>
<g clip-path="url(#clip49)" clip-rule="nonzero">
<g clip-path="url(#clip50)" clip-rule="nonzero">
<path style=" stroke:none;fill-rule:nonzero;fill:rgb(25.098039%,70.588235%,53.333333%);fill-opacity:1;" d="M 36.125 31.347656 C 36.125 37.363281 32.121094 42.238281 27.183594 42.238281 C 22.246094 42.238281 18.242188 37.363281 18.242188 31.347656 C 18.242188 25.335938 22.246094 20.460938 27.183594 20.460938 C 32.121094 20.460938 36.125 25.335938 36.125 31.347656 "/>
</g>
</g>
<g clip-path="url(#clip51)" clip-rule="nonzero">
<g clip-path="url(#clip52)" clip-rule="nonzero">
<path style=" stroke:none;fill-rule:nonzero;fill:rgb(25.098039%,70.980392%,53.72549%);fill-opacity:1;" d="M 35.808594 31.347656 C 35.808594 37.152344 31.949219 41.855469 27.183594 41.855469 C 22.417969 41.855469 18.554688 37.152344 18.554688 31.347656 C 18.554688 25.546875 22.417969 20.84375 27.183594 20.84375 C 31.949219 20.84375 35.808594 25.546875 35.808594 31.347656 "/>
</g>
</g>
<g clip-path="url(#clip53)" clip-rule="nonzero">
<g clip-path="url(#clip54)" clip-rule="nonzero">
<path style=" stroke:none;fill-rule:nonzero;fill:rgb(25.490196%,71.764706%,53.72549%);fill-opacity:1;" d="M 35.496094 31.347656 C 35.496094 36.9375 31.773438 41.472656 27.183594 41.472656 C 22.59375 41.472656 18.871094 36.9375 18.871094 31.347656 C 18.871094 25.757812 22.59375 21.226562 27.183594 21.226562 C 31.773438 21.226562 35.496094 25.757812 35.496094 31.347656 "/>
</g>
</g>
<g clip-path="url(#clip55)" clip-rule="nonzero">
<g clip-path="url(#clip56)" clip-rule="nonzero">
<path style=" stroke:none;fill-rule:nonzero;fill:rgb(25.882353%,72.156863%,54.117647%);fill-opacity:1;" d="M 35.179688 31.347656 C 35.179688 36.726562 31.601562 41.085938 27.183594 41.085938 C 22.765625 41.085938 19.1875 36.726562 19.1875 31.347656 C 19.1875 25.972656 22.765625 21.609375 27.183594 21.609375 C 31.601562 21.609375 35.179688 25.972656 35.179688 31.347656 "/>
</g>
</g>
<g clip-path="url(#clip57)" clip-rule="nonzero">
<g clip-path="url(#clip58)" clip-rule="nonzero">
<path style=" stroke:none;fill-rule:nonzero;fill:rgb(25.882353%,72.54902%,54.117647%);fill-opacity:1;" d="M 34.867188 31.347656 C 34.867188 36.515625 31.425781 40.703125 27.183594 40.703125 C 22.941406 40.703125 19.5 36.515625 19.5 31.347656 C 19.5 26.183594 22.941406 21.996094 27.183594 21.996094 C 31.425781 21.996094 34.867188 26.183594 34.867188 31.347656 "/>
</g>
</g>
<g clip-path="url(#clip59)" clip-rule="nonzero">
<g clip-path="url(#clip60)" clip-rule="nonzero">
<path style=" stroke:none;fill-rule:nonzero;fill:rgb(26.27451%,72.941176%,54.509804%);fill-opacity:1;" d="M 34.550781 31.347656 C 34.550781 36.304688 31.25 40.320312 27.183594 40.320312 C 23.113281 40.320312 19.816406 36.304688 19.816406 31.347656 C 19.816406 26.394531 23.113281 22.378906 27.183594 22.378906 C 31.25 22.378906 34.550781 26.394531 34.550781 31.347656 "/>
</g>
</g>
<g clip-path="url(#clip61)" clip-rule="nonzero">
<g clip-path="url(#clip62)" clip-rule="nonzero">
<path style=" stroke:none;fill-rule:nonzero;fill:rgb(26.27451%,73.333333%,54.509804%);fill-opacity:1;" d="M 34.234375 31.347656 C 34.234375 36.09375 31.078125 39.9375 27.183594 39.9375 C 23.289062 39.9375 20.128906 36.09375 20.128906 31.347656 C 20.128906 26.605469 23.289062 22.761719 27.183594 22.761719 C 31.078125 22.761719 34.234375 26.605469 34.234375 31.347656 "/>
</g>
</g>
<g clip-path="url(#clip63)" clip-rule="nonzero">
<g clip-path="url(#clip64)" clip-rule="nonzero">
<path style=" stroke:none;fill-rule:nonzero;fill:rgb(26.666667%,73.72549%,54.901961%);fill-opacity:1;" d="M 33.921875 31.347656 C 33.921875 35.878906 30.902344 39.554688 27.183594 39.554688 C 23.460938 39.554688 20.445312 35.878906 20.445312 31.347656 C 20.445312 26.816406 23.460938 23.144531 27.183594 23.144531 C 30.902344 23.144531 33.921875 26.816406 33.921875 31.347656 "/>
<path style=" stroke:none;fill-rule:nonzero;fill:rgb(27.058824%,74.117647%,55.294118%);fill-opacity:1;" d="M 33.605469 31.347656 C 33.605469 35.667969 30.730469 39.167969 27.183594 39.167969 C 23.636719 39.167969 20.761719 35.667969 20.761719 31.347656 C 20.761719 27.03125 23.636719 23.527344 27.183594 23.527344 C 30.730469 23.527344 33.605469 27.03125 33.605469 31.347656 "/>
</g>
</g>
<g clip-path="url(#clip65)" clip-rule="nonzero">
<g clip-path="url(#clip66)" clip-rule="nonzero">
<path style=" stroke:none;fill-rule:nonzero;fill:rgb(27.058824%,74.509804%,55.294118%);fill-opacity:1;" d="M 33.289062 31.347656 C 33.289062 35.457031 30.554688 38.785156 27.183594 38.785156 C 23.808594 38.785156 21.074219 35.457031 21.074219 31.347656 C 21.074219 27.242188 23.808594 23.914062 27.183594 23.914062 C 30.554688 23.914062 33.289062 27.242188 33.289062 31.347656 "/>
</g>
</g>
<path style=" stroke:none;fill-rule:nonzero;fill:rgb(6.27451%,13.333333%,19.607843%);fill-opacity:1;" d="M 66.109375 41.121094 C 64.476562 39.429688 63.660156 36.773438 63.660156 33.15625 L 63.660156 22.328125 C 63.660156 18.710938 64.476562 16.054688 66.109375 14.363281 C 67.742188 12.671875 70.035156 11.824219 72.992188 11.824219 C 75.867188 11.824219 78.109375 12.644531 79.722656 14.277344 C 81.316406 15.890625 82.113281 18.363281 82.113281 21.6875 L 82.113281 22.503906 L 78.0625 22.503906 L 78.0625 21.6875 C 78.0625 17.542969 76.390625 15.472656 73.046875 15.472656 C 71.300781 15.472656 69.976562 16.027344 69.082031 17.136719 C 68.191406 18.226562 67.742188 20.121094 67.742188 22.824219 L 67.742188 32.6875 C 67.742188 35.375 68.191406 37.261719 69.082031 38.347656 C 69.976562 39.457031 71.28125 40.011719 72.992188 40.011719 C 76.371094 40.011719 78.0625 37.941406 78.0625 33.796875 L 78.0625 32.980469 L 82.113281 32.980469 L 82.113281 33.738281 C 82.113281 37.046875 81.316406 39.527344 79.722656 41.179688 C 78.128906 42.832031 75.90625 43.660156 73.046875 43.660156 C 70.054688 43.660156 67.742188 42.8125 66.109375 41.121094 "/>
<path style=" stroke:none;fill-rule:nonzero;fill:rgb(6.27451%,13.333333%,19.607843%);fill-opacity:1;" d="M 92.082031 28.984375 L 92.082031 32.628906 C 92.082031 35.316406 92.550781 37.242188 93.480469 38.40625 C 94.414062 39.574219 95.738281 40.160156 97.445312 40.160156 C 100.710938 40.160156 102.34375 38.105469 102.34375 34 L 102.34375 33.738281 L 106.339844 33.738281 L 106.339844 33.941406 C 106.339844 37.152344 105.550781 39.574219 103.976562 41.207031 C 102.402344 42.84375 100.1875 43.660156 97.332031 43.660156 C 91.109375 43.660156 88 40.003906 88 32.6875 L 88 22.710938 C 88 19.128906 88.808594 16.417969 90.421875 14.570312 C 92.015625 12.738281 94.257812 11.824219 97.15625 11.824219 C 100.011719 11.824219 102.265625 12.738281 103.917969 14.570312 C 105.570312 16.398438 106.394531 19.109375 106.394531 22.710938 L 106.394531 28.984375 Z M 93.394531 17.164062 C 92.519531 18.292969 92.082031 20.179688 92.082031 22.824219 L 92.082031 25.859375 L 102.402344 25.859375 L 102.402344 22.710938 C 102.402344 20.082031 101.957031 18.226562 101.0625 17.136719 C 100.167969 16.027344 98.882812 15.472656 97.214844 15.472656 C 95.542969 15.472656 94.269531 16.039062 93.394531 17.164062 "/>
<path style=" stroke:none;fill-rule:nonzero;fill:rgb(6.27451%,13.333333%,19.607843%);fill-opacity:1;" d="M 112.835938 12.292969 L 116.773438 12.292969 L 116.773438 15.355469 C 117.453125 14.148438 118.347656 13.253906 119.453125 12.671875 C 120.523438 12.109375 121.777344 11.824219 123.214844 11.824219 C 124.011719 11.824219 124.75 11.902344 125.429688 12.058594 L 125.429688 16 C 124.363281 15.648438 123.371094 15.472656 122.457031 15.472656 C 120.804688 15.472656 119.464844 15.988281 118.433594 17.019531 C 117.40625 18.050781 116.890625 19.460938 116.890625 21.25 L 116.890625 43.191406 L 112.835938 43.191406 L 112.835938 12.292969 "/>
<path style=" stroke:none;fill-rule:nonzero;fill:rgb(6.27451%,13.333333%,19.607843%);fill-opacity:1;" d="M 136.15625 15.472656 L 136.15625 34.875 C 136.15625 36.453125 136.535156 37.640625 137.292969 38.4375 C 138.050781 39.214844 139.199219 39.605469 140.734375 39.605469 L 141.578125 39.605469 L 141.578125 43.191406 L 140.558594 43.191406 C 134.902344 43.191406 132.074219 40.480469 132.074219 35.050781 L 132.074219 15.472656 L 128.140625 15.472656 L 128.140625 12.292969 L 132.074219 12.292969 L 132.074219 5.84375 L 136.15625 4.003906 L 136.15625 12.292969 L 142.046875 12.292969 L 142.046875 15.472656 L 136.15625 15.472656 "/>
<path style=" stroke:none;fill-rule:nonzero;fill:rgb(6.27451%,13.333333%,19.607843%);fill-opacity:1;" d="M 147.957031 2.023438 L 152.066406 2.023438 L 152.066406 7.390625 L 147.957031 7.390625 Z M 147.957031 12.292969 L 152.007812 12.292969 L 152.007812 43.191406 L 147.957031 43.191406 L 147.957031 12.292969 "/>
<path style=" stroke:none;fill-rule:nonzero;fill:rgb(6.27451%,13.333333%,19.607843%);fill-opacity:1;" d="M 156.730469 12.292969 L 161.128906 12.292969 L 166.929688 36.746094 L 172.675781 12.292969 L 177.078125 12.292969 L 168.914062 43.191406 L 164.832031 43.191406 L 156.730469 12.292969 "/>
<path style=" stroke:none;fill-rule:nonzero;fill:rgb(6.27451%,13.333333%,19.607843%);fill-opacity:1;" d="M 181.84375 2.023438 L 185.953125 2.023438 L 185.953125 7.390625 L 181.84375 7.390625 Z M 181.84375 12.292969 L 185.894531 12.292969 L 185.894531 43.191406 L 181.84375 43.191406 L 181.84375 12.292969 "/>
<path style=" stroke:none;fill-rule:nonzero;fill:rgb(6.27451%,13.333333%,19.607843%);fill-opacity:1;" d="M 199.398438 15.472656 L 199.398438 34.875 C 199.398438 36.453125 199.777344 37.640625 200.535156 38.4375 C 201.292969 39.214844 202.441406 39.605469 203.976562 39.605469 L 204.820312 39.605469 L 204.820312 43.191406 L 203.800781 43.191406 C 198.144531 43.191406 195.316406 40.480469 195.316406 35.050781 L 195.316406 15.472656 L 191.382812 15.472656 L 191.382812 12.292969 L 195.316406 12.292969 L 195.316406 5.84375 L 199.398438 4.003906 L 199.398438 12.292969 L 205.285156 12.292969 L 205.285156 15.472656 L 199.398438 15.472656 "/>
<path style=" stroke:none;fill-rule:nonzero;fill:rgb(6.27451%,13.333333%,19.607843%);fill-opacity:1;" d="M 228.578125 12.292969 L 219.570312 46.109375 C 218.988281 48.40625 217.964844 50.03125 216.507812 50.984375 C 215.070312 51.917969 213.105469 52.382812 210.621094 52.382812 L 210.007812 52.382812 L 210.007812 48.738281 L 211.027344 48.738281 C 212.5625 48.738281 213.757812 48.445312 214.613281 47.863281 C 215.429688 47.296875 216.003906 46.296875 216.332031 44.855469 L 216.566406 43.921875 L 208.230469 12.292969 L 212.632812 12.292969 L 218.492188 35.898438 L 224.175781 12.292969 L 228.578125 12.292969 "/>
</g>
</svg>