<svg width="191" height="49" viewBox="0 0 191 49" fill="none" xmlns="http://www.w3.org/2000/svg">
<path d="M25.8463 33.936H14.5193C14.2816 33.936 13.9648 34.1737 13.9648 34.4905V37.4213C13.9648 37.6589 14.2024 37.9758 14.5193 37.9758H21.8858V41.8571C21.1729 42.4115 20.1432 42.8868 18.955 43.4413C17.6085 43.9958 16.1035 44.2334 14.5985 44.2334C12.9351 44.2334 11.2716 43.8373 9.84585 43.2036C8.34085 42.57 7.23191 41.461 6.51901 40.0352C5.72691 38.6887 5.25165 36.8668 5.25165 34.7281C5.25165 32.9855 5.6477 31.4013 6.28138 29.9755C6.67743 29.1834 7.23191 28.3121 7.86559 27.6784C8.49927 26.9655 9.4498 26.411 10.5587 26.015C11.6677 25.5397 13.0143 25.3813 14.5985 25.3813C15.8658 25.3813 17.054 25.5397 18.0837 26.015C19.1135 26.411 19.9056 26.9655 20.3808 27.5992C20.9353 28.2329 21.4106 29.2626 21.7274 30.4508C21.8066 30.6092 21.965 30.8468 22.2027 30.8468H22.2819L25.5295 30.0547C25.6087 30.0547 25.7671 29.9755 25.7671 29.8171C25.8463 29.7379 25.8463 29.5795 25.8463 29.421C25.3711 27.6784 24.6582 26.1734 23.7077 25.0645C22.7571 23.9555 21.4898 23.005 19.8264 22.4505C18.1629 21.8168 16.4203 21.5 14.3608 21.5C11.5885 21.5 9.21217 22.0545 7.07349 23.0842C4.93481 24.1932 3.27139 25.8566 2.08323 27.9953C1.13271 29.9755 0.499023 32.2726 0.499023 34.8073C0.499023 37.3421 1.0535 39.7184 2.24165 41.6986C3.3506 43.8373 5.09323 45.4215 7.31112 46.4513C9.52901 47.481 11.9845 48.1147 14.6777 48.1147C16.7372 48.1147 18.6382 47.7186 20.5393 47.085C22.4403 46.4513 24.3414 45.4215 26.084 44.075C26.2424 43.9958 26.2424 43.8373 26.2424 43.5997V34.4905C26.2424 34.4113 26.1632 34.2529 26.084 34.0945C26.084 34.0152 25.9256 33.936 25.8463 33.936Z" fill="#FD0807"/>
<path d="M40.1053 29.2631C38.9171 28.5502 37.6498 28.2334 36.5408 28.2334C35.7487 28.2334 34.8774 28.471 34.1645 28.9463C33.6893 29.1839 33.3724 29.6592 32.8972 30.2137V29.1839C32.8972 28.9463 32.7387 28.6295 32.3427 28.6295H29.4119C29.1743 28.6295 28.8574 28.7879 28.8574 29.1839V47.3231C28.8574 47.5607 29.0158 47.8776 29.4119 47.8776H32.7387C32.9764 47.8776 33.2932 47.7192 33.2932 47.3231V37.7386C33.2932 36.5505 33.4516 35.3623 33.8477 34.3326C34.0061 33.6989 34.4022 33.2237 34.8774 32.986C35.3527 32.59 35.9071 32.4315 36.5408 32.4315C37.2537 32.4315 38.0458 32.59 38.6795 33.0652C38.7587 33.0652 38.8379 33.1444 38.9171 33.1444C38.9964 33.1444 38.9964 33.1444 39.0756 33.1444C39.234 33.0652 39.3132 32.986 39.3132 32.9068L40.4221 30.0552C40.4221 29.58 40.2637 29.3423 40.1053 29.2631Z" fill="#FD0807"/>
<path d="M45.3305 28.5498H42.0037C41.7661 28.5498 41.4492 28.7082 41.4492 29.1043V47.2435C41.4492 47.4811 41.6076 47.7979 42.0037 47.7979H45.3305C45.5682 47.7979 45.885 47.6395 45.885 47.2435V29.0251C45.885 28.7874 45.6474 28.5498 45.3305 28.5498Z" fill="#FD0807"/>
<path d="M45.3305 21.6582H42.0037C41.7661 21.6582 41.4492 21.8958 41.4492 22.2127V25.6979C41.4492 25.9356 41.6076 26.2524 42.0037 26.2524H45.3305C45.5682 26.2524 45.885 26.094 45.885 25.6979V22.2127C45.885 21.975 45.6474 21.6582 45.3305 21.6582Z" fill="#FD0807"/>
<path d="M56.5782 44.6292C55.3108 44.6292 54.2019 44.0747 53.2513 43.045C52.3008 42.0153 51.7463 40.3519 51.7463 38.134C51.7463 35.8369 52.2216 34.1734 53.0929 33.1437C54.0434 32.114 54.994 31.6387 56.4197 31.6387C57.7663 31.6387 58.8753 32.1932 59.8258 33.2229C60.7763 34.2527 61.1724 35.9953 61.1724 38.3716C61.1724 40.5103 60.6971 42.0945 59.8258 43.045C58.8753 44.0747 57.9247 44.6292 56.5782 44.6292ZM64.7368 21.6582H61.4892C61.2516 21.6582 60.9347 21.8958 60.9347 22.2127V29.9753C60.4595 29.5792 59.9842 29.2624 59.4297 28.9456C58.4 28.4703 57.2911 28.2327 56.1029 28.2327C54.4395 28.2327 52.8553 28.7079 51.5087 29.5C50.1621 30.2129 49.1324 31.4011 48.3403 32.9853C47.7066 34.5695 47.3105 36.2329 47.3105 38.134C47.3105 40.035 47.7066 41.8569 48.4195 43.2826C49.1324 44.7876 50.2413 45.9758 51.6671 46.7679C53.0137 47.56 54.5187 48.0353 56.1821 48.0353C58.2416 48.0353 59.905 47.4016 61.0932 46.2134V47.1639C61.0932 47.4016 61.2516 47.7184 61.6476 47.7184H64.6576C64.8953 47.7184 65.2121 47.56 65.2121 47.1639V22.2127C65.2913 21.975 64.9745 21.6582 64.7368 21.6582Z" fill="#FD0807"/>
<path d="M93.2531 34.0948C93.1739 34.0156 93.0947 33.9364 92.8571 33.9364H81.53C81.2924 33.9364 80.9755 34.0948 80.9755 34.4908V37.4216C80.9755 37.6592 81.134 37.9761 81.53 37.9761H88.8966V41.8574C88.1837 42.4119 87.1539 42.8871 85.9658 43.4416C84.6192 43.9961 83.1142 44.2337 81.6092 44.2337C79.9458 44.2337 78.2824 43.8377 76.8566 43.204C75.3516 42.5703 74.2426 41.4613 73.5298 40.0356C72.7376 38.4514 72.3416 36.7087 72.3416 34.4908C72.3416 32.7482 72.7377 31.164 73.3713 29.7382C73.7674 28.9461 74.3219 28.0748 74.9555 27.4411C75.5892 26.7282 76.5398 26.1737 77.6487 25.7777C78.7576 25.3024 80.1042 25.144 81.6884 25.144C82.9558 25.144 84.1439 25.3024 85.1737 25.7777C86.2034 26.1737 86.9955 26.7282 87.4708 27.3619C88.0253 27.9956 88.5005 29.0253 88.8174 30.2135C88.8966 30.3719 89.055 30.6095 89.2926 30.6095H89.3718L92.6195 29.8174C92.6987 29.8174 92.8571 29.7382 92.8571 29.5798C92.9363 29.5006 92.9363 29.3422 92.9363 29.1837C92.461 27.4411 91.7481 25.9361 90.7976 24.8272C89.8471 23.7182 88.5797 22.7677 86.9163 22.2132C85.2529 21.5795 83.5103 21.2627 81.4508 21.2627C78.6784 21.2627 76.3021 21.8172 74.1634 22.8469C72.0248 23.9558 70.3613 25.6193 69.1732 27.7579C68.0642 29.9758 67.5098 32.2729 67.5098 34.8869C67.5098 37.5008 68.0642 39.7979 69.2524 41.7782C70.3613 43.9169 72.104 45.5011 74.3219 46.5308C76.5397 47.5605 78.9953 48.1942 81.6884 48.1942C83.7479 48.1942 85.6489 47.7982 87.55 47.1645C89.451 46.5308 91.3521 45.5011 93.0947 44.1545C93.1739 44.0753 93.2531 43.9169 93.2531 43.7584V34.4908C93.4908 34.3324 93.3324 34.174 93.2531 34.0948Z" fill="#070606"/>
<path d="M99.3535 42.3327C99.3535 41.8575 99.4327 41.5406 99.7496 41.1446C99.9872 40.7485 100.304 40.5109 100.859 40.3525C101.413 40.1941 102.364 39.9564 103.631 39.798C105.69 39.5604 107.195 39.2435 108.384 38.8475V39.2435C108.384 40.5109 108.225 41.4614 107.908 42.0951C107.433 42.8872 106.879 43.6001 106.007 43.9962C105.136 44.3922 104.106 44.7091 102.839 44.7091C101.651 44.7091 100.779 44.4714 100.225 43.9962C99.5912 43.5209 99.3535 43.0456 99.3535 42.3327ZM112.899 44.9467C112.819 44.2338 112.74 42.4912 112.74 39.6396V35.5999C112.74 34.2533 112.661 33.2235 112.582 32.6691C112.423 31.7185 112.027 30.9264 111.473 30.372C110.918 29.7383 110.126 29.263 109.017 28.867C107.908 28.4709 106.562 28.3125 104.74 28.3125C102.918 28.3125 101.492 28.4709 100.146 28.9462C98.7991 29.4214 97.7693 30.0551 96.9772 31.0057C96.2643 31.7978 95.7891 32.9067 95.393 34.3325C95.393 34.4909 95.393 34.5701 95.4722 34.7285C95.5514 34.8078 95.6306 34.887 95.8683 34.887L99.1159 35.283C99.1159 35.283 99.1159 35.283 99.1951 35.283C99.3535 35.283 99.6704 35.1246 99.6704 34.887C99.908 33.6988 100.462 32.9859 101.175 32.5107C101.809 32.0354 102.839 31.877 104.344 31.877C105.928 31.877 107.037 32.1146 107.75 32.8275C108.225 33.2235 108.463 34.0156 108.463 35.0454C108.463 35.1246 108.463 35.2038 108.463 35.5206C107.275 35.9167 105.453 36.1543 102.997 36.4712C101.73 36.6296 100.7 36.7088 100.066 36.9464C99.1159 37.1841 98.3238 37.5801 97.6109 38.0554C96.898 38.5306 96.2643 39.1643 95.7891 39.9564C95.3138 40.7485 95.0762 41.6991 95.0762 42.6496C95.0762 44.313 95.7099 45.6596 96.9772 46.7685C98.1654 47.7983 99.9872 48.3527 102.205 48.3527C103.552 48.3527 104.819 48.1943 106.007 47.719C106.958 47.323 107.908 46.7685 108.938 46.1348C109.017 46.6893 109.176 47.2438 109.492 47.719C109.572 47.8775 109.73 47.9567 109.968 47.9567H113.374C113.532 47.9567 113.77 47.8775 113.849 47.719C113.928 47.5606 113.928 47.323 113.849 47.1646C113.295 46.2933 112.978 45.6596 112.899 44.9467Z" fill="#070606"/>
<path d="M119.236 28.5498H115.909C115.671 28.5498 115.354 28.7082 115.354 29.1043V47.2435C115.354 47.4811 115.513 47.7979 115.909 47.7979H119.236C119.473 47.7979 119.79 47.6395 119.79 47.2435V29.0251C119.79 28.7874 119.632 28.5498 119.236 28.5498Z" fill="#070606"/>
<path d="M119.236 21.6582H115.909C115.671 21.6582 115.354 21.8958 115.354 22.2127V25.6979C115.354 25.9356 115.513 26.2524 115.909 26.2524H119.236C119.473 26.2524 119.79 26.094 119.79 25.6979V22.2127C119.79 21.975 119.632 21.6582 119.236 21.6582Z" fill="#070606"/>
<path d="M139.118 32.9852C138.959 32.0346 138.563 31.2425 138.009 30.5296C137.454 29.8167 136.662 29.2623 135.632 28.787C134.603 28.3117 133.414 28.1533 132.226 28.1533C129.929 28.1533 127.949 28.8662 126.602 30.292V29.1038C126.602 28.8662 126.365 28.5494 126.048 28.5494H123.038C122.8 28.5494 122.483 28.7078 122.483 29.1038V47.243C122.483 47.4807 122.642 47.7975 123.038 47.7975H126.365C126.602 47.7975 126.919 47.6391 126.919 47.243V37.3417C126.919 35.203 127.394 33.7773 128.266 32.9852C129.216 32.2723 130.325 31.8762 131.593 31.8762C132.305 31.8762 133.098 32.0346 133.652 32.3515C134.207 32.5891 134.603 33.0644 134.761 33.5396C134.919 34.0941 135.157 35.0446 135.157 36.1536V47.243C135.157 47.4807 135.315 47.7975 135.712 47.7975H139.038C139.276 47.7975 139.593 47.6391 139.593 47.243V36.0744C139.355 34.5694 139.276 33.5396 139.118 32.9852Z" fill="#070606"/>
<path d="M156.305 23.7969C155.672 24.1929 155.117 24.4306 154.484 24.8266C153.929 25.2227 153.295 25.4603 152.741 25.8563C152.186 26.2524 151.632 26.49 151.077 26.8861C150.523 27.1237 150.048 27.5198 149.493 27.8366C149.335 28.3119 149.256 28.8663 149.018 29.3416C148.86 29.8961 148.622 30.3713 148.464 30.9258C148.305 31.4803 148.067 32.0348 147.909 32.5892C147.751 33.1437 147.434 33.7774 147.275 34.4111C147.83 34.1734 148.384 33.8566 148.939 33.619C149.493 33.3813 150.048 33.0645 150.602 32.8269C151.157 32.5892 151.79 32.2724 152.345 32.0348C152.979 31.7971 153.612 31.4803 154.246 31.2427C154.404 30.609 154.642 29.9753 154.8 29.3416C154.959 28.7079 155.196 28.0742 155.355 27.5198C155.513 26.9653 155.592 26.3316 155.83 25.7771C155.989 24.9058 156.068 24.3513 156.305 23.7969Z" fill="#FD0807"/>
<path d="M157.414 15.876C156.86 16.272 156.305 16.5889 155.751 16.9849C155.196 17.381 154.721 17.6978 154.167 18.0939C153.691 18.4899 153.137 18.8068 152.662 19.2028C152.186 19.5989 151.711 19.9157 151.157 20.3118C151.077 20.7078 150.998 21.0247 150.998 21.4207C150.919 21.8168 150.84 22.1336 150.761 22.6089C150.681 23.0049 150.602 23.401 150.523 23.8762C150.444 24.3515 150.365 24.8268 150.127 25.2228C150.602 24.8268 151.157 24.5891 151.632 24.1931C152.186 23.797 152.662 23.5594 153.216 23.1633C153.771 22.7673 154.325 22.4504 154.88 22.1336C155.434 21.7375 156.068 21.4207 156.622 21.0247C156.701 20.5494 156.781 19.9949 156.86 19.5197C156.939 19.0444 157.018 18.5691 157.018 18.2523C157.097 17.777 157.097 17.4602 157.177 17.0641C157.335 16.5889 157.335 16.272 157.414 15.876Z" fill="#FD0807"/>
<path d="M153.216 34.4902C152.583 34.7279 151.949 34.9655 151.315 35.2031C150.682 35.4408 150.127 35.6784 149.493 35.916C148.939 36.1537 148.305 36.3913 147.751 36.6289C147.196 36.8665 146.642 37.1042 146.087 37.3418C145.85 38.0547 145.533 38.8468 145.295 39.6389C145.058 40.431 144.662 41.3023 144.345 42.0944C143.949 42.8865 143.711 43.8371 143.315 44.7084C142.919 45.6589 142.602 46.5302 142.206 47.4807C142.761 47.3223 143.315 47.0847 143.869 47.0055C144.424 46.8471 145.058 46.7678 145.612 46.5302C146.246 46.3718 146.8 46.2926 147.434 46.1342C148.068 46.0549 148.701 45.8965 149.493 45.7381C149.889 44.6292 150.206 43.5202 150.602 42.4905C150.998 41.4607 151.236 40.431 151.553 39.5597C151.87 38.6884 152.107 37.7379 152.345 36.7873C152.82 36.2329 153.058 35.2823 153.216 34.4902Z" fill="#FD0807"/>
<path d="M167.871 8.98535C167.158 9.46061 166.366 9.93588 165.653 10.3319C164.94 10.8072 164.307 11.2825 163.594 11.5993C162.96 12.0746 162.326 12.3914 161.693 12.8667C161.059 13.2627 160.504 13.6588 159.871 14.0548C159.871 14.4509 159.792 14.7677 159.792 15.243C159.792 15.639 159.712 16.0351 159.712 16.5103C159.633 16.9856 159.633 17.4609 159.554 17.8569C159.475 18.3322 159.475 18.8074 159.396 19.3619C160.029 18.9659 160.663 18.649 161.455 18.253C162.168 17.8569 162.802 17.4609 163.594 17.0648C164.307 16.6688 165.099 16.2727 165.891 15.8767C166.683 15.4014 167.475 15.0846 168.267 14.6093C168.267 14.0548 168.267 13.5003 168.267 13.0251C168.267 12.5498 168.267 11.9953 168.267 11.5201C168.267 11.0448 168.267 10.5696 168.188 10.2527C168.029 9.77746 167.871 9.30219 167.871 8.98535Z" fill="#FD0807"/>
<path d="M167.157 30.2129C166.048 30.4505 165.019 30.7674 164.147 31.005C163.197 31.2426 162.246 31.5595 161.375 31.7971C160.424 32.0347 159.632 32.3516 158.761 32.5892C157.969 32.8268 157.177 33.1437 156.385 33.3813C156.147 34.3318 155.909 35.1239 155.672 36.0745C155.434 37.025 155.117 37.9755 154.88 39.0052C154.642 40.035 154.246 41.1439 153.929 42.1737C153.533 43.2826 153.295 44.3916 152.899 45.5797C153.692 45.5005 154.563 45.4213 155.355 45.3421C156.305 45.2629 157.177 45.2629 158.127 45.1837C159.157 45.1837 160.187 45.1044 161.137 45.1044C162.246 45.1044 163.355 45.1044 164.543 45.1044C164.781 43.5994 165.098 42.2529 165.335 40.8271C165.573 39.5597 165.811 38.2131 166.048 36.9458C166.207 35.7576 166.524 34.5695 166.682 33.4605C166.92 32.3516 166.999 31.2426 167.157 30.2129Z" fill="#FD0807"/>
<path d="M186.408 9.14355C184.903 9.69803 183.556 10.2525 182.289 10.807C181.022 11.3614 179.675 11.8367 178.487 12.3912C177.299 12.8664 176.19 13.4209 175.081 13.8962C173.972 14.3714 172.942 14.8467 172.071 15.2428C172.071 15.9556 172.071 16.5893 172.071 17.3814C172.071 18.0943 172.071 18.9656 171.992 19.7577C171.992 20.5499 171.912 21.5004 171.912 22.3717C171.833 23.3222 171.833 24.2727 171.754 25.2233C172.863 24.8272 174.051 24.5896 175.318 24.1935C176.586 23.7975 177.932 23.5598 179.279 23.1638C180.784 22.7677 182.21 22.4509 183.794 22.0548C185.457 21.6588 187.121 21.342 188.943 20.8667C188.784 19.6785 188.547 18.4904 188.388 17.3814C188.23 16.2725 187.992 15.2428 187.834 14.213C187.675 13.2625 187.438 12.3912 187.2 11.4407C186.883 10.807 186.725 9.93566 186.408 9.14355Z" fill="#FD0807"/>
<path d="M182.999 0.113281C181.89 0.746964 180.781 1.38065 179.672 1.93512C178.642 2.48959 177.612 3.12328 176.662 3.67775C175.711 4.23222 174.84 4.78669 173.889 5.34117C172.939 5.89564 172.147 6.3709 171.275 6.92537C171.355 7.32143 171.434 7.71748 171.434 8.11353C171.513 8.58879 171.513 9.06406 171.592 9.46011C171.671 9.93537 171.671 10.4898 171.751 10.9651C171.751 11.5196 171.83 12.074 171.83 12.6285C172.78 12.1533 173.731 11.678 174.761 11.1235C175.79 10.6483 176.899 10.0938 178.008 9.53932C179.117 8.98484 180.305 8.43037 181.494 7.8759C182.761 7.32143 184.107 6.68774 185.375 6.13327C185.216 5.49959 184.9 4.94512 184.741 4.39064C184.583 3.83617 184.266 3.2817 184.107 2.80643C183.949 2.33117 183.632 1.7767 183.474 1.45986C183.395 0.905385 183.157 0.509333 182.999 0.113281Z" fill="#FD0807"/>
<path d="M189.573 26.0156C187.672 26.2533 185.771 26.5701 184.107 26.8077C182.444 27.0454 180.86 27.3622 179.355 27.5998C177.85 27.8375 176.503 28.1543 175.077 28.3919C173.81 28.6296 172.622 28.9464 171.354 29.1048C171.275 30.2138 171.117 31.3227 170.958 32.5109C170.8 33.699 170.721 34.9664 170.483 36.313C170.325 37.6596 170.087 39.0853 169.929 40.4319C169.77 41.9369 169.453 43.4419 169.216 45.0261C170.562 45.1053 171.988 45.1845 173.493 45.2638C175.077 45.343 176.741 45.5014 178.404 45.739C180.226 45.8974 182.206 46.2143 184.187 46.3727C186.325 46.6103 188.622 46.9272 190.999 47.3232C190.919 45.0261 190.84 42.8874 190.761 40.7488C190.682 38.6893 190.603 36.8674 190.365 35.0456C190.286 33.303 190.127 31.6396 189.89 30.0554C189.811 28.9464 189.731 27.4414 189.573 26.0156Z" fill="#FD0807"/>
</svg>